<svg xmlns="http://www.w3.org/2000/svg" xmlns:xlink="http://www.w3.org/1999/xlink" width="250" zoomAndPan="magnify" viewBox="0 0 187.5 37.5" height="50" preserveAspectRatio="xMidYMid meet" version="1.0"><defs><g/><clipPath id="58c1018ae8"><path d="M 172.988281 5.511719 L 183.351562 5.511719 L 183.351562 15.871094 L 172.988281 15.871094 Z M 172.988281 5.511719 " clip-rule="nonzero"/></clipPath></defs><g fill="#03989e" fill-opacity="1"><g transform="translate(9.581086, 27.078825)"><g><path d="M 14.71875 -17.5 L 14.71875 -6.21875 C 14.71875 -4.0625 14.132812 -2.429688 12.96875 -1.328125 C 11.8125 -0.234375 10.113281 0.3125 7.875 0.3125 C 5.644531 0.3125 3.953125 -0.234375 2.796875 -1.328125 C 1.640625 -2.429688 1.0625 -4.0625 1.0625 -6.21875 L 1.0625 -17.5 L 5.046875 -17.5 L 5.046875 -7.375 C 5.046875 -5.96875 5.265625 -4.988281 5.703125 -4.4375 C 6.148438 -3.882812 6.875 -3.609375 7.875 -3.609375 C 8.882812 -3.609375 9.613281 -3.882812 10.0625 -4.4375 C 10.507812 -4.988281 10.734375 -5.96875 10.734375 -7.375 L 10.734375 -17.5 Z M 14.71875 -17.5 "/></g></g></g><g fill="#03989e" fill-opacity="1"><g transform="translate(23.547683, 27.078825)"><g><path d="M 11.78125 -10.875 L 6.40625 -2.859375 L 11.359375 -2.859375 L 11.359375 0 L 0.109375 0 L 5.484375 -8.015625 L 1 -8.015625 L 1 -10.875 Z M 11.78125 -10.875 "/></g></g></g><g fill="#03989e" fill-opacity="1"><g transform="translate(33.635784, 27.078825)"><g><path d="M 1.265625 0 L 1.265625 -10.875 L 5.03125 -10.875 L 5.03125 -9.734375 L 5.0625 -9.734375 C 6.039062 -10.703125 7.082031 -11.1875 8.1875 -11.1875 C 8.976562 -11.1875 9.71875 -11.023438 10.40625 -10.703125 C 11.101562 -10.378906 11.628906 -9.878906 11.984375 -9.203125 C 13.085938 -10.523438 14.285156 -11.1875 15.578125 -11.1875 C 16.742188 -11.1875 17.742188 -10.863281 18.578125 -10.21875 C 19.410156 -9.570312 19.828125 -8.554688 19.828125 -7.171875 L 19.828125 0 L 16.078125 0 L 16.078125 -6.15625 C 16.078125 -6.726562 15.914062 -7.207031 15.59375 -7.59375 C 15.28125 -7.988281 14.800781 -8.1875 14.15625 -8.1875 C 13.613281 -8.1875 13.195312 -8.019531 12.90625 -7.6875 C 12.613281 -7.351562 12.453125 -6.953125 12.421875 -6.484375 L 12.421875 0 L 8.671875 0 L 8.671875 -6.15625 C 8.671875 -6.726562 8.507812 -7.207031 8.1875 -7.59375 C 7.875 -7.988281 7.398438 -8.1875 6.765625 -8.1875 C 6.179688 -8.1875 5.742188 -8.003906 5.453125 -7.640625 C 5.171875 -7.285156 5.03125 -6.859375 5.03125 -6.359375 L 5.03125 0 Z M 1.265625 0 "/></g></g></g><g fill="#03989e" fill-opacity="1"><g transform="translate(52.710127, 27.078825)"><g><path d="M 2.015625 -1.34375 C 0.992188 -2.457031 0.484375 -3.816406 0.484375 -5.421875 C 0.484375 -7.035156 0.992188 -8.398438 2.015625 -9.515625 C 3.035156 -10.628906 4.328125 -11.1875 5.890625 -11.1875 C 7.335938 -11.1875 8.523438 -10.738281 9.453125 -9.84375 L 9.453125 -10.875 L 13.203125 -10.875 L 13.203125 0 L 9.5 0 L 9.5 -1.234375 L 9.453125 -1.234375 C 8.523438 -0.203125 7.335938 0.3125 5.890625 0.3125 C 4.328125 0.3125 3.035156 -0.238281 2.015625 -1.34375 Z M 5.203125 -7.265625 C 4.710938 -6.785156 4.46875 -6.171875 4.46875 -5.421875 C 4.46875 -4.671875 4.703125 -4.0625 5.171875 -3.59375 C 5.640625 -3.125 6.253906 -2.890625 7.015625 -2.890625 C 7.753906 -2.890625 8.359375 -3.128906 8.828125 -3.609375 C 9.304688 -4.085938 9.546875 -4.691406 9.546875 -5.421875 C 9.546875 -6.171875 9.300781 -6.785156 8.8125 -7.265625 C 8.320312 -7.753906 7.722656 -8 7.015625 -8 C 6.296875 -8 5.691406 -7.753906 5.203125 -7.265625 Z M 5.203125 -7.265625 "/></g></g></g><g fill="#03989e" fill-opacity="1"><g transform="translate(65.383893, 27.078825)"><g><path d="M 1.265625 0 L 1.265625 -10.875 L 5.03125 -10.875 L 5.03125 -9.734375 L 5.0625 -9.734375 C 6.039062 -10.703125 7.082031 -11.1875 8.1875 -11.1875 C 8.71875 -11.1875 9.25 -11.113281 9.78125 -10.96875 C 10.3125 -10.832031 10.820312 -10.613281 11.3125 -10.3125 C 11.800781 -10.019531 12.195312 -9.601562 12.5 -9.0625 C 12.800781 -8.519531 12.953125 -7.890625 12.953125 -7.171875 L 12.953125 0 L 9.203125 0 L 9.203125 -6.15625 C 9.203125 -6.71875 9.019531 -7.207031 8.65625 -7.625 C 8.300781 -8.050781 7.832031 -8.265625 7.25 -8.265625 C 6.6875 -8.265625 6.175781 -8.046875 5.71875 -7.609375 C 5.257812 -7.171875 5.03125 -6.6875 5.03125 -6.15625 L 5.03125 0 Z M 1.265625 0 "/></g></g></g><g fill="#03989e" fill-opacity="1"><g transform="translate(77.591391, 27.078825)"><g><path d="M 1.265625 0 L 1.265625 -10.875 L 5.03125 -10.875 L 5.03125 -9.3125 L 5.0625 -9.3125 C 5.09375 -9.363281 5.140625 -9.429688 5.203125 -9.515625 C 5.265625 -9.597656 5.398438 -9.742188 5.609375 -9.953125 C 5.828125 -10.171875 6.054688 -10.363281 6.296875 -10.53125 C 6.535156 -10.707031 6.84375 -10.859375 7.21875 -10.984375 C 7.601562 -11.117188 7.992188 -11.1875 8.390625 -11.1875 C 8.804688 -11.1875 9.210938 -11.128906 9.609375 -11.015625 C 10.003906 -10.910156 10.289062 -10.800781 10.46875 -10.6875 L 10.765625 -10.515625 L 9.203125 -7.34375 C 8.734375 -7.738281 8.082031 -7.9375 7.25 -7.9375 C 6.800781 -7.9375 6.410156 -7.835938 6.078125 -7.640625 C 5.753906 -7.441406 5.523438 -7.195312 5.390625 -6.90625 C 5.253906 -6.625 5.160156 -6.382812 5.109375 -6.1875 C 5.054688 -5.988281 5.03125 -5.832031 5.03125 -5.71875 L 5.03125 0 Z M 1.265625 0 "/></g></g></g><g fill="#03989e" fill-opacity="1"><g transform="translate(86.344275, 27.078825)"><g><path d="M 2.015625 -1.34375 C 0.992188 -2.457031 0.484375 -3.816406 0.484375 -5.421875 C 0.484375 -7.035156 0.992188 -8.398438 2.015625 -9.515625 C 3.035156 -10.628906 4.328125 -11.1875 5.890625 -11.1875 C 7.335938 -11.1875 8.523438 -10.738281 9.453125 -9.84375 L 9.453125 -10.875 L 13.203125 -10.875 L 13.203125 0 L 9.5 0 L 9.5 -1.234375 L 9.453125 -1.234375 C 8.523438 -0.203125 7.335938 0.3125 5.890625 0.3125 C 4.328125 0.3125 3.035156 -0.238281 2.015625 -1.34375 Z M 5.203125 -7.265625 C 4.710938 -6.785156 4.46875 -6.171875 4.46875 -5.421875 C 4.46875 -4.671875 4.703125 -4.0625 5.171875 -3.59375 C 5.640625 -3.125 6.253906 -2.890625 7.015625 -2.890625 C 7.753906 -2.890625 8.359375 -3.128906 8.828125 -3.609375 C 9.304688 -4.085938 9.546875 -4.691406 9.546875 -5.421875 C 9.546875 -6.171875 9.300781 -6.785156 8.8125 -7.265625 C 8.320312 -7.753906 7.722656 -8 7.015625 -8 C 6.296875 -8 5.691406 -7.753906 5.203125 -7.265625 Z M 5.203125 -7.265625 "/></g></g></g><g fill="#03989e" fill-opacity="1"><g transform="translate(99.018036, 27.078825)"><g><path d="M 1.265625 0 L 1.265625 -10.875 L 5.03125 -10.875 L 5.03125 -9.734375 L 5.0625 -9.734375 C 6.039062 -10.703125 7.082031 -11.1875 8.1875 -11.1875 C 8.71875 -11.1875 9.25 -11.113281 9.78125 -10.96875 C 10.3125 -10.832031 10.820312 -10.613281 11.3125 -10.3125 C 11.800781 -10.019531 12.195312 -9.601562 12.5 -9.0625 C 12.800781 -8.519531 12.953125 -7.890625 12.953125 -7.171875 L 12.953125 0 L 9.203125 0 L 9.203125 -6.15625 C 9.203125 -6.71875 9.019531 -7.207031 8.65625 -7.625 C 8.300781 -8.050781 7.832031 -8.265625 7.25 -8.265625 C 6.6875 -8.265625 6.175781 -8.046875 5.71875 -7.609375 C 5.257812 -7.171875 5.03125 -6.6875 5.03125 -6.15625 L 5.03125 0 Z M 1.265625 0 "/></g></g></g><g fill="#03989e" fill-opacity="1"><g transform="translate(111.225535, 27.078825)"><g><path d="M 2.015625 -1.34375 C 0.992188 -2.457031 0.484375 -3.816406 0.484375 -5.421875 C 0.484375 -7.035156 0.992188 -8.398438 2.015625 -9.515625 C 3.035156 -10.628906 4.328125 -11.1875 5.890625 -11.1875 C 7.335938 -11.1875 8.523438 -10.738281 9.453125 -9.84375 L 9.453125 -18.234375 L 13.203125 -18.234375 L 13.203125 0 L 9.5 0 L 9.5 -1.234375 L 9.453125 -1.234375 C 8.523438 -0.203125 7.335938 0.3125 5.890625 0.3125 C 4.328125 0.3125 3.035156 -0.238281 2.015625 -1.34375 Z M 5.203125 -7.265625 C 4.710938 -6.785156 4.46875 -6.171875 4.46875 -5.421875 C 4.46875 -4.671875 4.703125 -4.0625 5.171875 -3.59375 C 5.640625 -3.125 6.253906 -2.890625 7.015625 -2.890625 C 7.753906 -2.890625 8.359375 -3.128906 8.828125 -3.609375 C 9.304688 -4.085938 9.546875 -4.691406 9.546875 -5.421875 C 9.546875 -6.171875 9.300781 -6.785156 8.8125 -7.265625 C 8.320312 -7.753906 7.722656 -8 7.015625 -8 C 6.296875 -8 5.691406 -7.753906 5.203125 -7.265625 Z M 5.203125 -7.265625 "/></g></g></g><g fill="#03989e" fill-opacity="1"><g transform="translate(123.899296, 27.078825)"><g><path d="M 12.28125 -4.921875 L 4.390625 -4.921875 C 4.390625 -4.160156 4.632812 -3.59375 5.125 -3.21875 C 5.625 -2.851562 6.164062 -2.671875 6.75 -2.671875 C 7.351562 -2.671875 7.832031 -2.75 8.1875 -2.90625 C 8.539062 -3.070312 8.941406 -3.394531 9.390625 -3.875 L 12.109375 -2.515625 C 10.972656 -0.628906 9.09375 0.3125 6.46875 0.3125 C 4.820312 0.3125 3.410156 -0.242188 2.234375 -1.359375 C 1.066406 -2.484375 0.484375 -3.835938 0.484375 -5.421875 C 0.484375 -7.003906 1.066406 -8.359375 2.234375 -9.484375 C 3.410156 -10.617188 4.820312 -11.1875 6.46875 -11.1875 C 8.1875 -11.1875 9.585938 -10.6875 10.671875 -9.6875 C 11.753906 -8.695312 12.296875 -7.273438 12.296875 -5.421875 C 12.296875 -5.171875 12.289062 -5.003906 12.28125 -4.921875 Z M 4.5 -7 L 8.625 -7 C 8.539062 -7.5625 8.316406 -7.992188 7.953125 -8.296875 C 7.597656 -8.597656 7.140625 -8.75 6.578125 -8.75 C 5.953125 -8.75 5.453125 -8.585938 5.078125 -8.265625 C 4.710938 -7.941406 4.519531 -7.519531 4.5 -7 Z M 4.5 -7 "/></g></g></g><g fill="#03989e" fill-opacity="1"><g transform="translate(134.877549, 27.078825)"><g><path d="M 4.03125 -10.875 L 6.671875 -4.96875 L 9.328125 -10.875 L 13.78125 -10.875 L 7.953125 0 L 5.40625 0 L -0.421875 -10.875 Z M 4.03125 -10.875 "/></g></g></g><g fill="#03989e" fill-opacity="1"><g transform="translate(146.428031, 27.078825)"><g><path d="M 4.8125 -10.875 L 4.8125 -5.703125 C 4.8125 -4.628906 4.972656 -3.863281 5.296875 -3.40625 C 5.617188 -2.957031 6.171875 -2.734375 6.953125 -2.734375 C 7.734375 -2.734375 8.285156 -2.957031 8.609375 -3.40625 C 8.929688 -3.863281 9.09375 -4.628906 9.09375 -5.703125 L 9.09375 -10.875 L 12.84375 -10.875 L 12.84375 -4.796875 C 12.84375 -2.984375 12.375 -1.675781 11.4375 -0.875 C 10.5 -0.0820312 9.003906 0.3125 6.953125 0.3125 C 4.898438 0.3125 3.40625 -0.0820312 2.46875 -0.875 C 1.53125 -1.675781 1.0625 -2.984375 1.0625 -4.796875 L 1.0625 -10.875 Z M 4.8125 -10.875 "/></g></g></g><g fill="#03989e" fill-opacity="1"><g transform="translate(158.529563, 27.078825)"><g><path d="M 1.265625 0 L 1.265625 -10.875 L 5.03125 -10.875 L 5.03125 -9.734375 L 5.0625 -9.734375 C 6.039062 -10.703125 7.082031 -11.1875 8.1875 -11.1875 C 8.976562 -11.1875 9.71875 -11.023438 10.40625 -10.703125 C 11.101562 -10.378906 11.628906 -9.878906 11.984375 -9.203125 C 13.085938 -10.523438 14.285156 -11.1875 15.578125 -11.1875 C 16.742188 -11.1875 17.742188 -10.863281 18.578125 -10.21875 C 19.410156 -9.570312 19.828125 -8.554688 19.828125 -7.171875 L 19.828125 0 L 16.078125 0 L 16.078125 -6.15625 C 16.078125 -6.726562 15.914062 -7.207031 15.59375 -7.59375 C 15.28125 -7.988281 14.800781 -8.1875 14.15625 -8.1875 C 13.613281 -8.1875 13.195312 -8.019531 12.90625 -7.6875 C 12.613281 -7.351562 12.453125 -6.953125 12.421875 -6.484375 L 12.421875 0 L 8.671875 0 L 8.671875 -6.15625 C 8.671875 -6.726562 8.507812 -7.207031 8.1875 -7.59375 C 7.875 -7.988281 7.398438 -8.1875 6.765625 -8.1875 C 6.179688 -8.1875 5.742188 -8.003906 5.453125 -7.640625 C 5.171875 -7.285156 5.03125 -6.859375 5.03125 -6.359375 L 5.03125 0 Z M 1.265625 0 "/></g></g></g><g clip-path="url(#58c1018ae8)"><path fill="#03989e" d="M 183.351562 10.691406 C 183.351562 13.566406 181.042969 15.871094 178.167969 15.871094 C 175.296875 15.871094 172.988281 13.566406 172.988281 10.691406 C 172.988281 7.820312 175.296875 5.511719 178.167969 5.511719 C 181.042969 5.511719 183.351562 7.820312 183.351562 10.691406 Z M 181.464844 9.492188 L 179.371094 9.492188 L 179.371094 7.394531 L 176.945312 7.394531 L 176.945312 9.492188 L 174.847656 9.492188 L 174.847656 11.917969 L 176.945312 11.917969 L 176.945312 13.988281 L 179.371094 13.988281 L 179.371094 11.894531 L 181.464844 11.894531 Z M 181.464844 9.492188 " fill-opacity="1" fill-rule="nonzero"/></g></svg>