<svg xmlns="http://www.w3.org/2000/svg" xmlns:xlink="http://www.w3.org/1999/xlink" width="200" zoomAndPan="magnify" viewBox="0 0 150 41.25" height="55" preserveAspectRatio="xMidYMid meet" version="1.0"><defs><g/><clipPath id="4913c54e3a"><path d="M 1.339844 0 L 148.660156 0 L 148.660156 40.511719 L 1.339844 40.511719 Z M 1.339844 0 " clip-rule="nonzero"/></clipPath><clipPath id="71aec2f35e"><path d="M 7 37 L 14 37 L 14 40.511719 L 7 40.511719 Z M 7 37 " clip-rule="nonzero"/></clipPath><clipPath id="81fe54dd60"><path d="M 18 37 L 24 37 L 24 40.511719 L 18 40.511719 Z M 18 37 " clip-rule="nonzero"/></clipPath><clipPath id="438d6e60a1"><path d="M 18 37 L 24 37 L 24 40.511719 L 18 40.511719 Z M 18 37 " clip-rule="nonzero"/></clipPath><clipPath id="781abf5b2d"><path d="M 7 37 L 14 37 L 14 40.511719 L 7 40.511719 Z M 7 37 " clip-rule="nonzero"/></clipPath><clipPath id="4610bc83c3"><path d="M 6 0 L 26.753906 0 L 26.753906 40.511719 L 6 40.511719 Z M 6 0 " clip-rule="nonzero"/></clipPath></defs><g clip-path="url(#4913c54e3a)"><path fill="#ffffff" d="M 1.339844 0 L 148.660156 0 L 148.660156 40.511719 L 1.339844 40.511719 Z M 1.339844 0 " fill-opacity="1" fill-rule="nonzero"/><path fill="#ffffff" d="M 1.339844 0 L 148.660156 0 L 148.660156 40.511719 L 1.339844 40.511719 Z M 1.339844 0 " fill-opacity="1" fill-rule="nonzero"/></g><path fill="#27aae1" d="M 18.953125 18.078125 C 18.945312 18.101562 18.933594 18.121094 18.917969 18.140625 C 16.902344 20.597656 16.335938 22.929688 16.289062 23.148438 L 16.289062 24.230469 C 16.820312 24.136719 17.320312 24.046875 17.746094 23.960938 C 17.617188 21.164062 18.8125 18.726562 19.214844 17.988281 C 19.128906 18.019531 19.042969 18.046875 18.953125 18.078125 Z M 18.953125 18.078125 " fill-opacity="1" fill-rule="nonzero"/><path fill="#ffe499" d="M 12.511719 23.757812 C 11.867188 23.472656 11.082031 23.742188 10.824219 23.84375 C 10.941406 24.183594 11.125 24.476562 11.40625 24.578125 C 11.75 24.703125 12.441406 24.703125 13.273438 24.636719 C 13.109375 24.207031 12.851562 23.910156 12.511719 23.757812 Z M 12.511719 23.757812 " fill-opacity="1" fill-rule="nonzero"/><path fill="#27aae1" d="M 15.898438 24.296875 L 15.898438 23.152344 C 15.261719 20.410156 13.226562 18.171875 13.207031 18.148438 C 13.199219 18.140625 13.195312 18.132812 13.1875 18.125 L 13.078125 18.089844 C 13.429688 18.933594 14.363281 21.398438 14.496094 24.503906 C 14.960938 24.441406 15.4375 24.371094 15.898438 24.296875 Z M 15.898438 24.296875 " fill-opacity="1" fill-rule="nonzero"/><path fill="#ffe499" d="M 18.335938 18.246094 C 16.839844 18.597656 15.339844 18.613281 13.839844 18.289062 C 14.402344 18.988281 15.507812 20.519531 16.097656 22.390625 C 16.378906 21.519531 17.019531 19.945312 18.335938 18.246094 Z M 18.335938 18.246094 " fill-opacity="1" fill-rule="nonzero"/><path fill="#ffffff" d="M 14.105469 24.550781 C 14.011719 22.433594 13.570312 20.386719 12.785156 18.414062 L 11.441406 22.496094 L 12.152344 23.222656 C 12.164062 23.234375 12.175781 23.246094 12.183594 23.261719 C 12.351562 23.285156 12.515625 23.332031 12.667969 23.402344 C 13.140625 23.609375 13.476562 24.015625 13.675781 24.601562 C 13.816406 24.582031 13.960938 24.570312 14.105469 24.550781 Z M 14.105469 24.550781 " fill-opacity="1" fill-rule="nonzero"/><path fill="#ffe499" d="M 15.988281 18.125 C 20.007812 18.125 23.273438 15.75 23.273438 12.828125 C 23.273438 12.824219 23.273438 12.820312 23.273438 12.816406 C 23.273438 12.808594 23.273438 12.800781 23.273438 12.792969 C 23.273438 12.785156 23.277344 12.78125 23.277344 12.773438 C 23.277344 12.769531 23.28125 12.761719 23.285156 12.757812 C 23.285156 12.75 23.289062 12.742188 23.292969 12.738281 C 23.296875 12.734375 23.296875 12.726562 23.300781 12.722656 C 23.304688 12.71875 23.308594 12.710938 23.3125 12.707031 C 23.316406 12.703125 23.320312 12.699219 23.324219 12.691406 L 23.339844 12.679688 C 23.34375 12.675781 23.347656 12.671875 23.355469 12.667969 C 23.359375 12.664062 23.363281 12.660156 23.371094 12.660156 C 23.375 12.65625 23.382812 12.652344 23.386719 12.648438 L 23.421875 12.636719 C 23.429688 12.636719 23.4375 12.636719 23.445312 12.636719 L 23.476562 12.636719 C 23.484375 12.636719 23.492188 12.636719 23.496094 12.636719 L 23.515625 12.644531 C 23.523438 12.644531 23.527344 12.648438 23.535156 12.648438 C 23.539062 12.648438 23.546875 12.65625 23.550781 12.65625 L 23.566406 12.667969 C 23.574219 12.667969 23.578125 12.671875 23.582031 12.679688 L 23.597656 12.691406 C 23.601562 12.695312 23.605469 12.699219 23.609375 12.703125 C 23.613281 12.707031 23.617188 12.714844 23.621094 12.71875 C 23.625 12.722656 23.628906 12.730469 23.632812 12.734375 C 23.636719 12.742188 23.636719 12.746094 23.640625 12.75 C 23.644531 12.757812 23.644531 12.765625 23.648438 12.773438 C 23.648438 12.777344 23.652344 12.78125 23.652344 12.789062 C 23.730469 13.136719 24.109375 13.25 24.28125 13.25 C 24.871094 13.25 25.371094 12.4375 25.371094 11.476562 C 25.371094 10.515625 24.878906 9.71875 24.277344 9.703125 C 24.015625 9.691406 23.792969 9.777344 23.605469 9.964844 C 23.039062 10.523438 23.039062 11.777344 23.039062 11.789062 C 23.039062 11.914062 22.976562 11.980469 22.847656 11.984375 C 22.722656 11.988281 22.65625 11.929688 22.648438 11.804688 L 22.421875 8.601562 L 21.285156 8.273438 C 21.238281 8.453125 21.171875 8.621094 21.078125 8.785156 C 20.59375 9.640625 19.6875 9.847656 19.652344 9.855469 C 19.636719 9.859375 19.621094 9.859375 19.609375 9.859375 C 19.53125 9.859375 19.476562 9.828125 19.4375 9.761719 C 19.398438 9.695312 19.398438 9.628906 19.4375 9.5625 C 19.445312 9.550781 19.636719 9.195312 19.453125 8.855469 C 19.296875 8.574219 18.84375 8.21875 17.535156 8.125 C 16.832031 8.074219 16.148438 7.929688 15.484375 7.691406 C 15.46875 7.726562 15.449219 7.753906 15.417969 7.773438 C 14.914062 8.152344 14.339844 8.296875 13.746094 8.296875 C 12.851562 8.296875 11.917969 7.960938 11.125 7.558594 L 9.453125 8.5625 L 9.234375 11.808594 C 9.222656 11.933594 9.15625 11.992188 9.03125 11.988281 C 8.90625 11.984375 8.839844 11.917969 8.839844 11.792969 C 8.839844 11.78125 8.839844 10.527344 8.273438 9.964844 C 8.085938 9.78125 7.863281 9.695312 7.601562 9.707031 C 7 9.722656 6.507812 10.515625 6.507812 11.480469 C 6.507812 12.445312 7.007812 13.25 7.597656 13.25 C 7.808594 13.25 8.25 13.113281 8.320312 12.789062 C 8.320312 12.785156 8.324219 12.78125 8.324219 12.777344 C 8.324219 12.773438 8.328125 12.761719 8.332031 12.753906 C 8.332031 12.75 8.335938 12.746094 8.339844 12.738281 C 8.34375 12.734375 8.347656 12.726562 8.351562 12.722656 C 8.351562 12.71875 8.355469 12.710938 8.359375 12.707031 C 8.367188 12.703125 8.371094 12.699219 8.375 12.691406 C 8.378906 12.6875 8.382812 12.683594 8.386719 12.683594 C 8.394531 12.679688 8.398438 12.671875 8.40625 12.667969 C 8.410156 12.667969 8.414062 12.664062 8.417969 12.660156 C 8.425781 12.65625 8.429688 12.65625 8.4375 12.652344 L 8.453125 12.648438 L 8.472656 12.640625 C 8.480469 12.640625 8.488281 12.640625 8.496094 12.640625 C 8.5 12.640625 8.503906 12.640625 8.511719 12.640625 L 8.527344 12.640625 C 8.535156 12.640625 8.542969 12.640625 8.550781 12.640625 L 8.585938 12.652344 C 8.59375 12.65625 8.597656 12.65625 8.601562 12.660156 C 8.609375 12.664062 8.613281 12.667969 8.621094 12.671875 C 8.625 12.675781 8.628906 12.679688 8.636719 12.683594 L 8.648438 12.695312 L 8.660156 12.710938 C 8.664062 12.714844 8.667969 12.71875 8.671875 12.726562 L 8.679688 12.742188 C 8.683594 12.746094 8.6875 12.753906 8.6875 12.757812 C 8.691406 12.765625 8.695312 12.769531 8.695312 12.777344 C 8.699219 12.785156 8.699219 12.789062 8.699219 12.792969 C 8.699219 12.800781 8.699219 12.808594 8.699219 12.820312 C 8.699219 12.828125 8.699219 12.828125 8.699219 12.832031 C 8.707031 15.75 11.972656 18.125 15.988281 18.125 Z M 15.988281 18.125 " fill-opacity="1" fill-rule="nonzero"/><path fill="#a97c50" d="M 7.792969 5.292969 L 7.792969 9.324219 C 8.089844 9.359375 8.339844 9.476562 8.546875 9.6875 C 8.71875 9.863281 8.851562 10.066406 8.945312 10.292969 L 9.074219 8.441406 C 9.082031 8.371094 9.113281 8.320312 9.167969 8.285156 L 10.730469 7.347656 C 10.164062 7.03125 9.628906 6.671875 9.125 6.265625 C 9.023438 6.183594 9.015625 6.089844 9.097656 5.988281 C 9.183594 5.890625 9.273438 5.878906 9.375 5.964844 C 9.410156 5.992188 12.980469 8.910156 15.085938 7.539062 C 13.5625 6.90625 12.648438 6 12.59375 5.945312 C 12.503906 5.851562 12.503906 5.757812 12.597656 5.667969 C 12.691406 5.578125 12.78125 5.578125 12.875 5.667969 C 12.890625 5.6875 14.765625 7.539062 17.574219 7.738281 C 18.765625 7.824219 19.519531 8.140625 19.808594 8.679688 C 19.917969 8.886719 19.957031 9.109375 19.921875 9.34375 C 20.273438 9.179688 20.550781 8.929688 20.746094 8.589844 C 21.0625 8.027344 21.066406 7.28125 20.757812 6.371094 C 20.714844 6.246094 20.757812 6.164062 20.882812 6.121094 C 21.003906 6.078125 21.085938 6.121094 21.128906 6.242188 C 21.335938 6.855469 21.414062 7.402344 21.367188 7.890625 L 22.671875 8.265625 C 22.761719 8.292969 22.808594 8.351562 22.8125 8.445312 L 22.945312 10.296875 C 23.035156 10.070312 23.167969 9.867188 23.339844 9.691406 C 23.449219 9.582031 23.574219 9.496094 23.710938 9.433594 L 23.710938 5.421875 C 23.710938 5.355469 23.738281 5.300781 23.796875 5.261719 C 23.851562 5.222656 23.910156 5.214844 23.972656 5.234375 L 24.578125 5.441406 C 21.796875 1.207031 17.136719 1.410156 17.089844 1.414062 C 17 1.417969 16.9375 1.382812 16.898438 1.300781 C 16.863281 1.222656 16.871094 1.148438 16.933594 1.085938 L 17.351562 0.632812 C 13.085938 0.574219 10.40625 2.859375 10.378906 2.882812 C 10.316406 2.941406 10.242188 2.949219 10.164062 2.910156 C 9.746094 2.707031 9.527344 2.214844 9.421875 1.878906 C 8.777344 2.65625 8.613281 4.324219 8.613281 4.339844 C 8.605469 4.402344 8.582031 4.449219 8.535156 4.484375 C 8.488281 4.519531 8.433594 4.53125 8.375 4.519531 C 7.566406 4.355469 7.050781 4.679688 6.792969 4.917969 L 7.640625 5.101562 C 7.742188 5.125 7.792969 5.1875 7.792969 5.292969 Z M 7.792969 5.292969 " fill-opacity="1" fill-rule="nonzero"/><path fill="#ffffff" d="M 19.3125 18.667969 C 18.828125 19.6875 18.050781 21.6875 18.136719 23.882812 C 18.285156 23.855469 18.421875 23.824219 18.542969 23.800781 C 18.601562 23.789062 18.65625 23.800781 18.703125 23.835938 C 18.75 23.875 18.777344 23.921875 18.777344 23.984375 L 18.796875 24.421875 C 18.816406 24.414062 18.835938 24.410156 18.855469 24.410156 C 19.023438 24.410156 19.1875 24.429688 19.351562 24.460938 L 20.828125 22.628906 C 19.636719 21.410156 19.363281 19.679688 19.3125 18.667969 Z M 19.3125 18.667969 " fill-opacity="1" fill-rule="nonzero"/><path fill="#ffe499" d="M 18.867188 24.800781 C 18.851562 24.800781 18.832031 24.800781 18.816406 24.792969 L 18.898438 26.636719 C 19.632812 26.59375 20.273438 26.328125 20.824219 25.839844 C 20.875 25.792969 20.925781 25.746094 20.972656 25.695312 C 19.949219 24.792969 18.878906 24.800781 18.867188 24.800781 Z M 18.867188 24.800781 " fill-opacity="1" fill-rule="nonzero"/><path fill="#ffffff" d="M 15.101562 27.546875 C 16.375 27.148438 17.585938 26.773438 18.507812 26.660156 L 18.398438 24.230469 C 17.28125 24.464844 12.53125 25.40625 11.273438 24.945312 C 10.183594 24.550781 10.238281 22.546875 10.242188 22.460938 C 10.246094 22.332031 10.3125 22.269531 10.445312 22.273438 C 10.574219 22.277344 10.636719 22.34375 10.632812 22.476562 C 10.628906 22.808594 10.65625 23.136719 10.722656 23.460938 C 11.015625 23.347656 11.316406 23.277344 11.628906 23.246094 L 11.074219 22.683594 C 11.019531 22.625 11.003906 22.558594 11.03125 22.484375 L 12.542969 17.910156 C 11.78125 17.628906 11.082031 17.242188 10.4375 16.75 C 9.921875 16.964844 7.414062 18.125 6.90625 20.355469 C 6.378906 22.691406 5.984375 27.773438 8.144531 28.550781 C 9.882812 29.171875 12.652344 28.308594 15.101562 27.546875 Z M 15.101562 27.546875 " fill-opacity="1" fill-rule="nonzero"/><path fill="#ffffff" d="M 20.070312 29.554688 L 20.007812 29.554688 C 19.453125 29.554688 18.882812 29.527344 18.3125 29.476562 L 19.042969 34.964844 C 19.246094 36.253906 21.074219 36.371094 22.125 36.238281 L 24.515625 35.929688 L 23.71875 29.011719 C 22.789062 29.359375 21.542969 29.546875 20.070312 29.554688 Z M 20.070312 29.554688 " fill-opacity="1" fill-rule="nonzero"/><path fill="#ffffff" d="M 21.621094 16.71875 C 21.613281 16.714844 21.605469 16.710938 21.597656 16.707031 C 21.015625 17.164062 20.382812 17.53125 19.699219 17.808594 C 19.707031 17.832031 19.710938 17.855469 19.707031 17.882812 C 19.707031 17.914062 19.484375 20.832031 21.226562 22.472656 C 21.316406 22.554688 21.320312 22.644531 21.246094 22.738281 L 19.769531 24.566406 C 20.3125 24.738281 20.800781 25.015625 21.226562 25.398438 C 21.777344 24.667969 22.078125 23.652344 22.128906 22.363281 C 22.132812 22.234375 22.203125 22.167969 22.332031 22.175781 C 22.464844 22.179688 22.527344 22.246094 22.519531 22.378906 C 22.457031 24.070312 21.96875 25.332031 21.078125 26.136719 C 20.425781 26.71875 19.664062 27.019531 18.789062 27.03125 L 18.714844 27.03125 C 17.816406 27.113281 16.554688 27.503906 15.214844 27.921875 C 14.867188 28.027344 14.515625 28.140625 14.160156 28.246094 C 15.429688 28.652344 16.730469 28.925781 18.054688 29.066406 L 18.058594 29.066406 C 18.089844 29.0625 18.121094 29.066406 18.152344 29.074219 C 20.355469 29.296875 22.4375 29.132812 23.765625 28.582031 C 23.792969 28.558594 23.824219 28.546875 23.859375 28.542969 C 24.160156 28.414062 24.4375 28.246094 24.683594 28.035156 C 26.296875 26.601562 26.109375 22.164062 25.277344 19.855469 C 24.484375 17.640625 21.648438 16.726562 21.621094 16.71875 Z M 21.621094 16.71875 " fill-opacity="1" fill-rule="nonzero"/><path fill="#58595b" d="M 22.171875 36.625 C 21.921875 36.660156 21.671875 36.675781 21.417969 36.675781 C 20.078125 36.675781 18.839844 36.195312 18.652344 35.023438 L 18.476562 33.699219 C 18.46875 33.699219 18.464844 33.699219 18.457031 33.699219 L 13.492188 33.699219 L 13.296875 35.082031 C 13.097656 36.347656 11.90625 36.867188 10.648438 36.867188 C 10.445312 36.867188 10.246094 36.855469 10.046875 36.828125 L 10.035156 36.828125 L 9.113281 36.652344 L 8.816406 37.417969 L 8.980469 37.449219 C 9.453125 37.390625 9.90625 37.460938 10.335938 37.667969 C 11.488281 37.804688 13.109375 37.871094 14.386719 37.445312 L 15.433594 33.996094 C 15.46875 33.867188 15.550781 33.820312 15.679688 33.859375 C 15.808594 33.898438 15.851562 33.984375 15.808594 34.109375 L 15.695312 34.480469 L 17.261719 37.328125 C 17.585938 37.417969 19.160156 37.757812 22.898438 37.332031 L 22.457031 36.585938 Z M 22.171875 36.625 " fill-opacity="1" fill-rule="nonzero"/><path fill="#ffffff" d="M 9.027344 36.238281 L 10.101562 36.445312 C 11.363281 36.605469 12.71875 36.226562 12.910156 35.023438 L 13.8125 28.539062 C 13.730469 28.511719 13.648438 28.484375 13.566406 28.453125 C 13.550781 28.449219 13.535156 28.441406 13.523438 28.433594 C 12.148438 28.832031 10.757812 29.152344 9.554688 29.152344 C 9.109375 29.160156 8.675781 29.105469 8.246094 28.992188 L 7.449219 35.941406 L 9.023438 36.238281 Z M 9.027344 36.238281 " fill-opacity="1" fill-rule="nonzero"/><path fill="#1c75bc" d="M 17.914062 29.4375 C 16.648438 29.300781 15.40625 29.042969 14.191406 28.667969 L 13.546875 33.308594 L 18.425781 33.308594 Z M 17.914062 29.4375 " fill-opacity="1" fill-rule="nonzero"/><g clip-path="url(#71aec2f35e)"><path fill="#58595b" d="M 10.972656 38.125 C 11.109375 38.261719 11.230469 38.410156 11.324219 38.578125 C 11.394531 38.699219 11.367188 38.789062 11.246094 38.851562 C 11.125 38.914062 11.035156 38.882812 10.976562 38.757812 C 10.953125 38.714844 10.375 37.65625 8.964844 37.847656 C 8.058594 37.96875 7.765625 38.714844 7.683594 39.027344 C 7.550781 39.519531 7.648438 39.898438 7.734375 39.96875 C 8.011719 40.128906 10.476562 40.085938 12.75 39.949219 L 13.101562 38.109375 C 12.738281 38.148438 12.371094 38.167969 12.003906 38.167969 C 11.644531 38.167969 11.300781 38.148438 10.972656 38.125 Z M 10.972656 38.125 " fill-opacity="1" fill-rule="nonzero"/></g><g clip-path="url(#81fe54dd60)"><path fill="#58595b" d="M 20.632812 38.757812 C 20.570312 38.867188 20.484375 38.890625 20.371094 38.835938 C 20.261719 38.777344 20.234375 38.691406 20.285156 38.578125 C 20.441406 38.3125 20.648438 38.085938 20.898438 37.898438 C 20.410156 37.925781 19.980469 37.9375 19.597656 37.9375 C 19.15625 37.9375 18.78125 37.921875 18.46875 37.902344 L 18.859375 39.949219 C 21.136719 40.085938 23.597656 40.128906 23.878906 39.964844 C 23.960938 39.902344 24.054688 39.519531 23.929688 39.03125 C 23.84375 38.714844 23.550781 37.96875 22.644531 37.847656 C 21.230469 37.660156 20.65625 38.714844 20.632812 38.757812 Z M 20.632812 38.757812 " fill-opacity="1" fill-rule="nonzero"/></g><path fill="#ffc17d" d="M 9.460938 8.570312 L 9.234375 11.808594 C 9.222656 11.933594 9.15625 11.992188 9.03125 11.988281 C 8.90625 11.984375 8.839844 11.917969 8.839844 11.792969 C 8.839844 11.78125 8.839844 10.527344 8.273438 9.964844 C 8.085938 9.78125 7.863281 9.695312 7.601562 9.707031 C 7 9.722656 6.507812 10.515625 6.507812 11.480469 C 6.507812 12.445312 7.007812 13.25 7.597656 13.25 C 7.808594 13.25 8.25 13.113281 8.320312 12.789062 C 8.320312 12.785156 8.324219 12.78125 8.324219 12.777344 C 8.324219 12.773438 8.328125 12.761719 8.332031 12.753906 C 8.332031 12.75 8.335938 12.746094 8.339844 12.738281 C 8.34375 12.734375 8.347656 12.726562 8.351562 12.722656 C 8.351562 12.71875 8.355469 12.710938 8.359375 12.707031 C 8.367188 12.703125 8.371094 12.699219 8.375 12.691406 C 8.378906 12.6875 8.382812 12.683594 8.386719 12.683594 C 8.394531 12.679688 8.398438 12.671875 8.40625 12.667969 C 8.410156 12.667969 8.414062 12.664062 8.417969 12.660156 C 8.425781 12.65625 8.429688 12.65625 8.4375 12.652344 L 8.453125 12.648438 L 8.472656 12.640625 C 8.480469 12.640625 8.488281 12.640625 8.496094 12.640625 C 8.5 12.640625 8.503906 12.640625 8.511719 12.640625 L 8.527344 12.640625 C 8.535156 12.640625 8.542969 12.640625 8.550781 12.640625 L 8.585938 12.652344 C 8.59375 12.65625 8.597656 12.65625 8.601562 12.660156 C 8.609375 12.664062 8.613281 12.667969 8.621094 12.671875 C 8.625 12.675781 8.628906 12.679688 8.636719 12.683594 L 8.648438 12.695312 L 8.660156 12.710938 C 8.664062 12.714844 8.667969 12.71875 8.671875 12.726562 L 8.679688 12.742188 C 8.683594 12.746094 8.6875 12.753906 8.6875 12.757812 C 8.691406 12.765625 8.695312 12.769531 8.695312 12.777344 C 8.699219 12.785156 8.699219 12.789062 8.699219 12.792969 C 8.699219 12.800781 8.699219 12.808594 8.699219 12.820312 C 8.699219 12.828125 8.699219 12.828125 8.699219 12.832031 C 8.699219 15.753906 11.96875 18.128906 15.984375 18.128906 C 18.347656 18.128906 20.453125 17.300781 21.785156 16.03125 C 19.902344 17.257812 16.4375 18.925781 12.765625 16.710938 C 9.097656 14.496094 11.132812 7.5625 11.132812 7.5625 Z M 9.460938 8.570312 " fill-opacity="1" fill-rule="nonzero"/><path fill="#ffe499" d="M 8.839844 11.792969 C 8.839844 11.78125 8.839844 10.527344 8.273438 9.964844 C 8.085938 9.78125 7.863281 9.695312 7.601562 9.707031 C 7 9.722656 6.507812 10.515625 6.507812 11.480469 C 6.507812 12.445312 7.007812 13.25 7.597656 13.25 C 7.808594 13.25 8.25 13.113281 8.320312 12.789062 C 8.320312 12.785156 8.324219 12.78125 8.324219 12.777344 C 8.324219 12.773438 8.328125 12.761719 8.332031 12.753906 C 8.332031 12.75 8.335938 12.746094 8.339844 12.738281 C 8.34375 12.734375 8.347656 12.726562 8.351562 12.722656 C 8.351562 12.71875 8.355469 12.710938 8.359375 12.707031 C 8.367188 12.703125 8.371094 12.699219 8.375 12.691406 C 8.378906 12.6875 8.382812 12.683594 8.386719 12.683594 C 8.394531 12.679688 8.398438 12.671875 8.40625 12.667969 C 8.410156 12.667969 8.414062 12.664062 8.417969 12.660156 C 8.425781 12.65625 8.429688 12.65625 8.4375 12.652344 L 8.453125 12.648438 L 8.472656 12.640625 C 8.480469 12.640625 8.488281 12.640625 8.496094 12.640625 C 8.5 12.640625 8.503906 12.640625 8.511719 12.640625 L 8.527344 12.640625 C 8.535156 12.640625 8.542969 12.640625 8.550781 12.640625 L 8.585938 12.652344 C 8.59375 12.65625 8.597656 12.65625 8.601562 12.660156 C 8.609375 12.664062 8.613281 12.667969 8.621094 12.671875 C 8.625 12.675781 8.628906 12.679688 8.636719 12.683594 L 8.648438 12.695312 L 8.660156 12.710938 C 8.664062 12.714844 8.667969 12.71875 8.671875 12.726562 L 8.679688 12.742188 C 8.683594 12.746094 8.6875 12.753906 8.6875 12.757812 C 8.691406 12.765625 8.695312 12.769531 8.695312 12.777344 L 8.914062 11.941406 C 8.863281 11.902344 8.839844 11.855469 8.839844 11.792969 Z M 8.839844 11.792969 " fill-opacity="1" fill-rule="nonzero"/><path fill="#ffc17d" d="M 14.488281 19.523438 C 14.488281 19.523438 15.867188 20.207031 17.679688 19.523438 L 18.507812 18.089844 C 18.507812 18.089844 15.421875 18.703125 13.816406 18.089844 L 13.632812 18.246094 Z M 14.488281 19.523438 " fill-opacity="1" fill-rule="nonzero"/><path fill="#ffc17d" d="M 25.03125 11.421875 C 25.03125 11.664062 24.964844 11.871094 24.835938 12.046875 C 24.707031 12.21875 24.550781 12.304688 24.367188 12.304688 C 24.183594 12.304688 24.027344 12.21875 23.898438 12.046875 C 23.769531 11.871094 23.703125 11.664062 23.703125 11.421875 C 23.703125 11.175781 23.769531 10.96875 23.898438 10.796875 C 24.027344 10.621094 24.183594 10.535156 24.367188 10.535156 C 24.550781 10.535156 24.707031 10.621094 24.835938 10.796875 C 24.964844 10.96875 25.03125 11.175781 25.03125 11.421875 Z M 25.03125 11.421875 " fill-opacity="1" fill-rule="nonzero"/><path fill="#ffc17d" d="M 8.292969 11.421875 C 8.292969 11.664062 8.226562 11.871094 8.097656 12.046875 C 7.96875 12.21875 7.8125 12.304688 7.628906 12.304688 C 7.445312 12.304688 7.289062 12.21875 7.160156 12.046875 C 7.03125 11.871094 6.964844 11.664062 6.964844 11.421875 C 6.964844 11.175781 7.03125 10.96875 7.160156 10.796875 C 7.289062 10.621094 7.445312 10.535156 7.628906 10.535156 C 7.8125 10.535156 7.96875 10.621094 8.097656 10.796875 C 8.226562 10.96875 8.292969 11.175781 8.292969 11.421875 Z M 8.292969 11.421875 " fill-opacity="1" fill-rule="nonzero"/><path fill="#8b5e3c" d="M 12.875 5.667969 C 12.886719 5.679688 14.082031 6.863281 15.988281 7.441406 C 11.453125 5.457031 14.566406 2.257812 14.566406 2.257812 C 12.886719 2.425781 11.445312 3.808594 11.445312 3.808594 C 9.355469 3.585938 9.417969 1.878906 9.417969 1.878906 C 8.777344 2.65625 8.613281 4.324219 8.613281 4.339844 C 8.605469 4.402344 8.582031 4.449219 8.535156 4.484375 C 8.488281 4.519531 8.433594 4.53125 8.375 4.519531 C 7.566406 4.355469 7.050781 4.679688 6.792969 4.917969 L 7.640625 5.101562 C 7.742188 5.125 7.792969 5.1875 7.792969 5.292969 L 7.792969 9.324219 C 8.089844 9.359375 8.339844 9.476562 8.546875 9.6875 C 8.71875 9.863281 8.851562 10.066406 8.945312 10.292969 L 9.074219 8.441406 C 9.082031 8.371094 9.113281 8.320312 9.167969 8.285156 L 10.730469 7.347656 C 10.164062 7.03125 9.628906 6.671875 9.125 6.265625 C 9.023438 6.183594 9.015625 6.089844 9.097656 5.988281 C 9.183594 5.890625 9.273438 5.878906 9.375 5.964844 C 9.410156 5.992188 12.980469 8.910156 15.085938 7.539062 C 13.5625 6.90625 12.648438 6 12.59375 5.945312 C 12.503906 5.851562 12.503906 5.757812 12.597656 5.667969 C 12.691406 5.578125 12.78125 5.578125 12.875 5.667969 Z M 12.875 5.667969 " fill-opacity="1" fill-rule="nonzero"/><path fill="#c49a6c" d="M 20.757812 6.367188 C 20.757812 6.367188 20.839844 7.742188 20.285156 8.414062 C 20.285156 8.414062 19.230469 7.546875 17.886719 7.765625 C 17.886719 7.765625 19.335938 8.214844 19.527344 8.609375 C 19.71875 9 19.617188 9.664062 19.617188 9.664062 C 19.617188 9.664062 21.855469 8.925781 20.757812 6.367188 Z M 20.757812 6.367188 " fill-opacity="1" fill-rule="nonzero"/><path fill="#c49a6c" d="M 22.8125 8.46875 L 22.941406 10.324219 C 23.035156 10.09375 23.167969 9.890625 23.339844 9.714844 C 23.449219 9.609375 23.570312 9.523438 23.710938 9.457031 L 23.710938 5.449219 C 23.710938 5.382812 23.738281 5.328125 23.792969 5.289062 C 23.847656 5.25 23.90625 5.242188 23.972656 5.265625 L 24.574219 5.46875 C 21.796875 1.234375 17.132812 1.4375 17.085938 1.441406 C 16.996094 1.449219 16.933594 1.410156 16.898438 1.332031 C 16.859375 1.25 16.871094 1.179688 16.929688 1.113281 L 17.347656 0.660156 C 13.082031 0.601562 10.40625 2.886719 10.378906 2.910156 C 10.378906 2.910156 14.011719 1.382812 15.988281 1.242188 L 15.171875 2.078125 C 15.171875 2.078125 19.664062 1.582031 22.941406 4.605469 L 22.230469 4.464844 C 22.230469 4.464844 22.214844 6.355469 22.085938 8.304688 C 22.167969 8.324219 22.804688 8.386719 22.8125 8.46875 Z M 22.8125 8.46875 " fill-opacity="1" fill-rule="nonzero"/><path fill="#fff6e1" d="M 23.269531 10.527344 C 23.269531 10.527344 25.351562 9.582031 25.171875 12.5 C 25.171875 12.5 26.671875 10.234375 24.289062 9.511719 C 24.289062 9.511719 23.476562 9.59375 23.269531 10.527344 Z M 23.269531 10.527344 " fill-opacity="1" fill-rule="nonzero"/><path fill="#d1d3d4" d="M 9.414062 17.28125 C 9.414062 17.28125 10.859375 18.265625 10.457031 22.273438 C 10.578125 22.285156 10.636719 22.351562 10.632812 22.476562 C 10.628906 22.808594 10.65625 23.136719 10.722656 23.460938 C 11.015625 23.347656 11.316406 23.277344 11.628906 23.246094 L 11.074219 22.683594 C 11.019531 22.625 11.003906 22.558594 11.03125 22.484375 L 12.542969 17.910156 C 11.78125 17.628906 11.082031 17.242188 10.4375 16.75 C 10.082031 16.902344 9.742188 17.078125 9.414062 17.28125 Z M 9.414062 17.28125 " fill-opacity="1" fill-rule="nonzero"/><path fill="#d1d3d4" d="M 8.074219 30.488281 C 8.074219 30.488281 9.953125 31.429688 13.632812 29.84375 L 14.019531 28.480469 L 13.273438 28.300781 C 13.273438 28.300781 10.257812 29.132812 8.078125 28.734375 Z M 8.074219 30.488281 " fill-opacity="1" fill-rule="nonzero"/><path fill="#d1d3d4" d="M 18.457031 30.550781 C 18.457031 30.550781 22.777344 31.140625 24.035156 30.015625 L 23.886719 28.730469 C 23.886719 28.730469 20.757812 29.710938 18.085938 29.253906 Z M 18.457031 30.550781 " fill-opacity="1" fill-rule="nonzero"/><path fill="#d1d3d4" d="M 19.363281 26.976562 C 19.171875 27.011719 18.984375 27.03125 18.792969 27.03125 L 18.71875 27.03125 C 17.820312 27.113281 16.554688 27.503906 15.21875 27.921875 C 14.871094 28.027344 14.519531 28.140625 14.164062 28.246094 C 15.433594 28.652344 16.734375 28.925781 18.058594 29.066406 L 18.0625 29.066406 C 18.09375 29.0625 18.125 29.066406 18.15625 29.074219 C 18.15625 29.074219 16.894531 27.691406 19.363281 26.976562 Z M 19.363281 26.976562 " fill-opacity="1" fill-rule="nonzero"/><path fill="#d1d3d4" d="M 19.863281 19.828125 C 19.867188 19.761719 20.355469 22.078125 22.335938 22.175781 C 22.335938 22.175781 22.371094 24.886719 21.191406 25.628906 L 19.449219 24.652344 L 21.0625 22.65625 C 21.0625 22.65625 19.726562 21.976562 19.863281 19.828125 Z M 19.863281 19.828125 " fill-opacity="1" fill-rule="nonzero"/><path fill="#d1d3d4" d="M 18.492188 26.320312 C 17.15625 26.460938 15.847656 26.730469 14.566406 27.128906 C 7.128906 29.414062 6.507812 24.503906 6.507812 24.503906 L 6.496094 24.503906 C 6.535156 26.375 6.949219 28.117188 8.144531 28.546875 C 9.882812 29.167969 12.652344 28.304688 15.101562 27.542969 C 16.375 27.144531 17.585938 26.769531 18.507812 26.65625 Z M 18.492188 26.320312 " fill-opacity="1" fill-rule="nonzero"/><path fill="#d1d3d4" d="M 12.785156 18.414062 C 12.785156 18.414062 14.085938 23.191406 13.273438 23.796875 L 13.675781 24.601562 L 14.308594 24.683594 C 14.308594 24.683594 13.761719 19.234375 12.785156 18.414062 Z M 12.785156 18.414062 " fill-opacity="1" fill-rule="nonzero"/><path fill="#d1d3d4" d="M 19.3125 18.667969 C 19.3125 18.667969 18.039062 22.949219 19.351562 24.457031 L 18.605469 24.5 L 18.582031 23.992188 L 18.082031 24.09375 C 18.082031 24.09375 18.0625 19.945312 19.3125 18.667969 Z M 19.3125 18.667969 " fill-opacity="1" fill-rule="nonzero"/><path fill="#27aae1" d="M 18.457031 32.886719 L 16.289062 32.886719 L 15.796875 30.132812 L 15.230469 32.886719 L 13.320312 32.886719 L 13.273438 33.5 L 18.625 33.304688 Z M 18.457031 32.886719 " fill-opacity="1" fill-rule="nonzero"/><path fill="#1c75bc" d="M 17.679688 19.523438 L 18.765625 19.429688 L 19.214844 17.988281 L 18.765625 18.015625 Z M 17.679688 19.523438 " fill-opacity="1" fill-rule="nonzero"/><path fill="#1c75bc" d="M 14.488281 19.523438 L 13.519531 19.523438 L 12.832031 18.015625 L 13.351562 17.867188 Z M 14.488281 19.523438 " fill-opacity="1" fill-rule="nonzero"/><path fill="#ffc17d" d="M 19.214844 24.835938 C 19.214844 24.835938 18.847656 26.253906 20.453125 26.128906 C 20.453125 26.128906 20.289062 26.457031 20.195312 26.5 C 20.105469 26.539062 18.765625 26.835938 18.765625 26.835938 L 18.625 24.652344 Z M 19.214844 24.835938 " fill-opacity="1" fill-rule="nonzero"/><path fill="#ffc17d" d="M 10.824219 23.84375 C 10.824219 23.84375 12.683594 23.933594 13.273438 24.636719 C 13.273438 24.636719 12.398438 24.710938 12.339844 24.792969 C 12.285156 24.878906 11.046875 24.503906 11.046875 24.503906 Z M 10.824219 23.84375 " fill-opacity="1" fill-rule="nonzero"/><path fill="#808285" d="M 17.753906 36.675781 L 15.699219 34.484375 L 17.265625 37.332031 C 17.589844 37.417969 19.164062 37.761719 22.902344 37.335938 L 22.460938 36.589844 C 21.246094 37.140625 17.753906 36.675781 17.753906 36.675781 Z M 17.753906 36.675781 " fill-opacity="1" fill-rule="nonzero"/><path fill="#808285" d="M 9.113281 36.65625 C 9.113281 36.65625 12.613281 37.25 13.8125 36.65625 L 15.503906 34.210938 L 14.546875 37.601562 L 10.625 37.972656 L 8.550781 37.558594 Z M 9.113281 36.65625 " fill-opacity="1" fill-rule="nonzero"/><path fill="#414042" d="M 13.394531 34.304688 L 18.757812 34.304688 L 18.625 33.5 L 13.394531 33.5 Z M 13.394531 34.304688 " fill-opacity="1" fill-rule="nonzero"/><g clip-path="url(#438d6e60a1)"><path fill="#414042" d="M 23.878906 39.96875 C 23.933594 39.925781 24 39.742188 23.992188 39.480469 C 18.816406 40.496094 19.789062 37.9375 19.789062 37.9375 L 19.597656 37.9375 C 19.160156 37.9375 18.785156 37.921875 18.46875 37.902344 L 18.859375 39.949219 C 21.136719 40.089844 23.601562 40.132812 23.878906 39.96875 Z M 23.878906 39.96875 " fill-opacity="1" fill-rule="nonzero"/></g><path fill="#808285" d="M 23.046875 38.222656 C 23.046875 38.292969 22.976562 38.351562 22.835938 38.402344 C 22.695312 38.453125 22.527344 38.476562 22.328125 38.476562 C 22.128906 38.476562 21.957031 38.453125 21.816406 38.402344 C 21.675781 38.351562 21.605469 38.292969 21.605469 38.222656 C 21.605469 38.152344 21.675781 38.09375 21.816406 38.042969 C 21.957031 37.992188 22.128906 37.96875 22.328125 37.96875 C 22.527344 37.96875 22.695312 37.992188 22.835938 38.042969 C 22.976562 38.09375 23.046875 38.152344 23.046875 38.222656 Z M 23.046875 38.222656 " fill-opacity="1" fill-rule="nonzero"/><g clip-path="url(#781abf5b2d)"><path fill="#414042" d="M 7.71875 39.96875 C 7.664062 39.925781 7.601562 39.742188 7.609375 39.480469 C 12.785156 40.496094 11.808594 37.9375 11.808594 37.9375 L 12 37.9375 C 12.441406 37.9375 12.816406 37.921875 13.128906 37.902344 L 12.738281 39.949219 C 10.464844 40.089844 8 40.132812 7.71875 39.96875 Z M 7.71875 39.96875 " fill-opacity="1" fill-rule="nonzero"/></g><path fill="#808285" d="M 9.992188 38.222656 C 9.992188 38.292969 9.925781 38.351562 9.785156 38.402344 C 9.644531 38.453125 9.472656 38.476562 9.273438 38.476562 C 9.074219 38.476562 8.90625 38.453125 8.765625 38.402344 C 8.625 38.351562 8.554688 38.292969 8.554688 38.222656 C 8.554688 38.152344 8.625 38.09375 8.765625 38.042969 C 8.90625 37.992188 9.074219 37.96875 9.273438 37.96875 C 9.472656 37.96875 9.644531 37.992188 9.785156 38.042969 C 9.925781 38.09375 9.992188 38.152344 9.992188 38.222656 Z M 9.992188 38.222656 " fill-opacity="1" fill-rule="nonzero"/><g clip-path="url(#4610bc83c3)"><path fill="#231f20" d="M 25.695312 19.703125 C 24.972656 17.695312 22.816406 16.699219 22.03125 16.394531 C 22.90625 15.578125 23.488281 14.578125 23.660156 13.488281 C 23.851562 13.613281 24.058594 13.679688 24.285156 13.6875 C 25.144531 13.6875 25.816406 12.714844 25.816406 11.476562 C 25.816406 10.253906 25.148438 9.285156 24.292969 9.265625 C 24.242188 9.265625 24.195312 9.265625 24.148438 9.265625 L 24.148438 5.765625 L 24.949219 6.035156 C 25.058594 6.074219 25.148438 6.046875 25.21875 5.960938 C 25.289062 5.871094 25.296875 5.78125 25.242188 5.683594 C 23.746094 3.101562 21.601562 1.957031 20.070312 1.453125 C 19.277344 1.191406 18.460938 1.03125 17.625 0.980469 L 17.964844 0.613281 C 18.035156 0.539062 18.050781 0.453125 18.011719 0.355469 C 17.972656 0.257812 17.898438 0.210938 17.796875 0.203125 C 13.628906 0 10.886719 1.925781 10.234375 2.433594 C 9.945312 2.1875 9.804688 1.664062 9.773438 1.464844 C 9.757812 1.371094 9.707031 1.308594 9.621094 1.277344 C 9.539062 1.242188 9.457031 1.25 9.382812 1.304688 C 8.585938 1.894531 8.292969 3.429688 8.207031 4.042969 C 6.871094 3.910156 6.25 4.867188 6.222656 4.914062 C 6.175781 4.988281 6.171875 5.0625 6.203125 5.140625 C 6.238281 5.21875 6.296875 5.265625 6.378906 5.285156 L 7.351562 5.492188 L 7.351562 9.296875 C 6.617188 9.472656 6.066406 10.375 6.066406 11.476562 C 6.066406 12.71875 6.738281 13.6875 7.597656 13.6875 C 7.855469 13.683594 8.097656 13.609375 8.3125 13.46875 C 8.484375 14.59375 9.09375 15.625 10.007812 16.457031 C 9.132812 16.863281 6.972656 18.066406 6.476562 20.257812 C 6.046875 22.167969 5.394531 27.746094 7.816406 28.886719 L 6.988281 36.070312 C 6.972656 36.222656 7.039062 36.308594 7.1875 36.335938 L 8.660156 36.617188 L 8.324219 37.46875 C 8.308594 37.507812 8.304688 37.546875 8.3125 37.589844 C 7.800781 37.835938 7.425781 38.300781 7.257812 38.917969 C 7.125 39.410156 7.136719 40.0625 7.46875 40.316406 C 7.5625 40.390625 7.722656 40.511719 9.234375 40.511719 C 9.5625 40.511719 9.957031 40.507812 10.429688 40.492188 C 11.695312 40.457031 12.921875 40.378906 12.933594 40.378906 C 13.0625 40.371094 13.136719 40.304688 13.160156 40.179688 L 13.554688 38.097656 C 13.921875 38.039062 14.28125 37.949219 14.632812 37.828125 C 14.710938 37.800781 14.761719 37.746094 14.785156 37.667969 L 15.554688 35.128906 L 16.917969 37.609375 C 16.949219 37.664062 16.992188 37.699219 17.046875 37.722656 C 17.074219 37.730469 17.363281 37.832031 18.023438 37.90625 L 18.457031 40.179688 C 18.480469 40.304688 18.554688 40.371094 18.683594 40.378906 C 18.695312 40.378906 19.921875 40.457031 21.1875 40.492188 C 21.660156 40.503906 22.050781 40.511719 22.382812 40.511719 C 23.894531 40.511719 24.054688 40.386719 24.148438 40.316406 C 24.480469 40.058594 24.488281 39.410156 24.359375 38.914062 C 24.207031 38.34375 23.871094 37.902344 23.414062 37.644531 C 23.425781 37.628906 23.433594 37.617188 23.441406 37.601562 C 23.480469 37.519531 23.476562 37.441406 23.433594 37.367188 L 22.960938 36.570312 L 24.761719 36.339844 C 24.921875 36.316406 24.992188 36.226562 24.972656 36.066406 L 24.148438 28.886719 C 24.449219 28.75 24.722656 28.574219 24.972656 28.355469 C 26.753906 26.785156 26.585938 22.179688 25.695312 19.703125 Z M 6.898438 4.890625 C 7.167969 4.671875 7.648438 4.417969 8.367188 4.5625 C 8.441406 4.578125 8.503906 4.5625 8.5625 4.519531 C 8.621094 4.476562 8.652344 4.417969 8.660156 4.34375 C 8.703125 3.863281 8.917969 2.640625 9.398438 1.984375 C 9.515625 2.320312 9.742188 2.761719 10.140625 2.957031 C 10.238281 3.003906 10.328125 2.992188 10.410156 2.921875 C 10.4375 2.898438 13.046875 0.664062 17.234375 0.679688 L 16.894531 1.054688 C 16.816406 1.132812 16.800781 1.226562 16.847656 1.324219 C 16.894531 1.425781 16.976562 1.472656 17.085938 1.464844 C 17.132812 1.464844 21.683594 1.273438 24.453125 5.351562 L 23.984375 5.191406 C 23.90625 5.167969 23.832031 5.175781 23.765625 5.226562 C 23.699219 5.273438 23.664062 5.339844 23.660156 5.421875 L 23.660156 9.398438 C 23.527344 9.464844 23.410156 9.546875 23.304688 9.652344 C 23.171875 9.785156 23.0625 9.9375 22.976562 10.105469 L 22.859375 8.4375 C 22.851562 8.324219 22.792969 8.25 22.679688 8.21875 L 21.417969 7.851562 C 21.460938 7.371094 21.378906 6.828125 21.175781 6.226562 C 21.15625 6.164062 21.113281 6.117188 21.054688 6.085938 C 20.992188 6.054688 20.929688 6.050781 20.867188 6.074219 C 20.800781 6.09375 20.753906 6.136719 20.722656 6.195312 C 20.695312 6.257812 20.691406 6.320312 20.710938 6.382812 C 21.015625 7.28125 21.011719 8.015625 20.707031 8.5625 C 20.53125 8.867188 20.289062 9.097656 19.976562 9.261719 C 19.992188 9.046875 19.949219 8.84375 19.847656 8.652344 C 19.554688 8.101562 18.785156 7.777344 17.574219 7.691406 C 14.785156 7.492188 12.925781 5.652344 12.910156 5.632812 C 12.859375 5.582031 12.804688 5.558594 12.734375 5.558594 C 12.667969 5.558594 12.609375 5.582031 12.5625 5.628906 C 12.515625 5.679688 12.488281 5.734375 12.488281 5.804688 C 12.488281 5.871094 12.511719 5.929688 12.558594 5.976562 C 12.613281 6.03125 13.5 6.910156 14.980469 7.546875 C 12.898438 8.777344 9.445312 5.957031 9.410156 5.925781 C 9.355469 5.882812 9.296875 5.863281 9.230469 5.871094 C 9.160156 5.878906 9.105469 5.90625 9.0625 5.957031 C 9.019531 6.011719 9.003906 6.070312 9.007812 6.136719 C 9.015625 6.207031 9.042969 6.261719 9.097656 6.304688 C 9.582031 6.691406 10.09375 7.042969 10.636719 7.347656 L 9.144531 8.242188 C 9.070312 8.289062 9.03125 8.351562 9.027344 8.4375 L 8.910156 10.105469 C 8.824219 9.9375 8.714844 9.785156 8.582031 9.652344 C 8.375 9.449219 8.128906 9.324219 7.84375 9.285156 L 7.84375 5.292969 C 7.84375 5.160156 7.777344 5.082031 7.648438 5.054688 Z M 8.757812 12.828125 C 8.757812 12.824219 8.757812 12.816406 8.757812 12.8125 C 8.757812 12.800781 8.757812 12.792969 8.757812 12.78125 C 8.753906 12.773438 8.753906 12.765625 8.75 12.761719 C 8.746094 12.753906 8.746094 12.746094 8.742188 12.738281 C 8.738281 12.730469 8.734375 12.722656 8.730469 12.714844 C 8.726562 12.707031 8.722656 12.703125 8.71875 12.695312 C 8.714844 12.6875 8.710938 12.683594 8.707031 12.675781 L 8.691406 12.660156 C 8.6875 12.652344 8.679688 12.648438 8.671875 12.644531 C 8.667969 12.636719 8.660156 12.632812 8.65625 12.628906 C 8.648438 12.625 8.640625 12.617188 8.632812 12.617188 C 8.625 12.613281 8.621094 12.609375 8.613281 12.605469 L 8.585938 12.59375 C 8.582031 12.59375 8.574219 12.589844 8.570312 12.589844 C 8.5625 12.589844 8.554688 12.589844 8.546875 12.589844 C 8.535156 12.589844 8.527344 12.585938 8.519531 12.585938 L 8.503906 12.585938 C 8.492188 12.585938 8.484375 12.589844 8.472656 12.589844 L 8.453125 12.59375 L 8.425781 12.605469 C 8.421875 12.605469 8.414062 12.609375 8.410156 12.613281 C 8.402344 12.617188 8.394531 12.621094 8.386719 12.625 L 8.371094 12.636719 L 8.347656 12.65625 C 8.34375 12.660156 8.339844 12.664062 8.335938 12.671875 C 8.328125 12.675781 8.324219 12.683594 8.316406 12.691406 L 8.304688 12.710938 C 8.300781 12.71875 8.296875 12.726562 8.292969 12.734375 C 8.292969 12.742188 8.289062 12.75 8.285156 12.761719 C 8.285156 12.765625 8.28125 12.769531 8.28125 12.777344 C 8.210938 13.078125 7.777344 13.199219 7.605469 13.199219 C 7.042969 13.199219 6.566406 12.414062 6.566406 11.480469 C 6.566406 10.546875 7.039062 9.773438 7.613281 9.757812 C 7.859375 9.746094 8.070312 9.828125 8.246094 10.003906 C 8.800781 10.546875 8.800781 11.78125 8.800781 11.792969 C 8.800781 11.953125 8.878906 12.035156 9.035156 12.039062 C 9.195312 12.046875 9.277344 11.972656 9.289062 11.8125 L 9.515625 8.601562 L 11.144531 7.621094 C 11.9375 8.019531 12.867188 8.351562 13.765625 8.351562 C 14.363281 8.351562 14.949219 8.203125 15.464844 7.820312 C 15.488281 7.804688 15.507812 7.78125 15.523438 7.757812 C 16.179688 7.992188 16.855469 8.132812 17.550781 8.183594 C 18.832031 8.273438 19.277344 8.613281 19.425781 8.882812 C 19.484375 8.996094 19.511719 9.113281 19.5 9.238281 C 19.492188 9.226562 19.480469 9.214844 19.472656 9.203125 C 19.453125 9.179688 18.964844 8.679688 18.054688 8.75 C 17.984375 8.757812 17.929688 8.785156 17.886719 8.835938 C 17.84375 8.886719 17.824219 8.949219 17.828125 9.015625 C 17.832031 9.082031 17.863281 9.136719 17.914062 9.183594 C 17.964844 9.226562 18.023438 9.246094 18.09375 9.242188 C 18.757812 9.1875 19.097656 9.523438 19.117188 9.539062 C 19.195312 9.625 19.289062 9.640625 19.394531 9.59375 C 19.367188 9.671875 19.378906 9.746094 19.425781 9.816406 C 19.476562 9.882812 19.542969 9.917969 19.625 9.917969 C 19.644531 9.917969 19.660156 9.914062 19.679688 9.910156 C 19.71875 9.902344 20.644531 9.691406 21.140625 8.816406 C 21.222656 8.667969 21.289062 8.507812 21.335938 8.34375 L 22.394531 8.648438 L 22.613281 11.816406 C 22.625 11.976562 22.710938 12.050781 22.867188 12.046875 C 23.027344 12.039062 23.105469 11.957031 23.105469 11.800781 C 23.105469 11.457031 23.195312 10.464844 23.65625 10.007812 C 23.828125 9.832031 24.039062 9.75 24.285156 9.757812 C 24.859375 9.769531 25.328125 10.542969 25.328125 11.480469 C 25.328125 12.414062 24.851562 13.199219 24.289062 13.199219 C 24.128906 13.199219 23.78125 13.097656 23.707031 12.777344 C 23.707031 12.769531 23.703125 12.765625 23.703125 12.761719 C 23.699219 12.75 23.695312 12.742188 23.691406 12.730469 C 23.691406 12.726562 23.6875 12.71875 23.683594 12.710938 C 23.679688 12.707031 23.675781 12.699219 23.667969 12.691406 C 23.664062 12.683594 23.660156 12.679688 23.65625 12.671875 C 23.648438 12.667969 23.644531 12.660156 23.640625 12.65625 L 23.621094 12.640625 C 23.617188 12.636719 23.609375 12.628906 23.601562 12.625 L 23.582031 12.613281 C 23.574219 12.609375 23.566406 12.605469 23.558594 12.601562 C 23.550781 12.601562 23.542969 12.597656 23.535156 12.597656 C 23.527344 12.59375 23.523438 12.589844 23.515625 12.589844 C 23.503906 12.589844 23.496094 12.585938 23.484375 12.585938 L 23.46875 12.585938 C 23.460938 12.585938 23.449219 12.589844 23.441406 12.589844 C 23.433594 12.589844 23.425781 12.589844 23.417969 12.589844 C 23.414062 12.589844 23.410156 12.59375 23.402344 12.59375 L 23.375 12.605469 L 23.355469 12.617188 C 23.347656 12.621094 23.339844 12.625 23.332031 12.628906 C 23.328125 12.632812 23.320312 12.636719 23.316406 12.644531 C 23.308594 12.648438 23.300781 12.652344 23.296875 12.660156 C 23.292969 12.664062 23.289062 12.671875 23.28125 12.675781 C 23.277344 12.683594 23.273438 12.6875 23.265625 12.695312 C 23.261719 12.710938 23.253906 12.722656 23.246094 12.738281 C 23.242188 12.746094 23.242188 12.753906 23.238281 12.761719 C 23.234375 12.769531 23.234375 12.773438 23.234375 12.78125 C 23.230469 12.792969 23.230469 12.800781 23.230469 12.8125 C 23.230469 12.816406 23.230469 12.824219 23.230469 12.828125 C 23.230469 15.722656 19.984375 18.078125 15.996094 18.078125 C 12.007812 18.078125 8.757812 15.722656 8.757812 12.828125 Z M 18.945312 26.582031 L 18.867188 24.851562 C 18.878906 24.851562 19.902344 24.839844 20.898438 25.699219 C 20.863281 25.734375 20.828125 25.769531 20.789062 25.804688 C 20.261719 26.273438 19.648438 26.53125 18.945312 26.582031 Z M 18.855469 24.359375 L 18.84375 24.359375 L 18.828125 23.976562 C 18.824219 23.902344 18.792969 23.84375 18.734375 23.796875 C 18.675781 23.75 18.605469 23.734375 18.535156 23.75 C 18.429688 23.773438 18.3125 23.796875 18.183594 23.824219 C 18.117188 21.78125 18.800781 19.910156 19.277344 18.863281 C 19.355469 19.886719 19.660156 21.472656 20.765625 22.628906 L 19.335938 24.402344 C 19.175781 24.375 19.015625 24.359375 18.855469 24.359375 Z M 17.695312 23.921875 C 17.292969 24.003906 16.828125 24.089844 16.335938 24.171875 L 16.335938 23.15625 C 16.394531 22.90625 16.960938 20.597656 18.953125 18.171875 C 18.96875 18.15625 18.980469 18.136719 18.988281 18.113281 L 19.113281 18.074219 C 18.664062 18.925781 17.582031 21.257812 17.695312 23.921875 Z M 12.492188 23.804688 C 12.804688 23.945312 13.042969 24.210938 13.203125 24.59375 C 12.410156 24.65625 11.753906 24.652344 11.421875 24.53125 C 11.167969 24.441406 10.996094 24.183594 10.882812 23.875 C 11.171875 23.765625 11.898438 23.539062 12.492188 23.804688 Z M 13.710938 24.546875 C 13.507812 23.96875 13.164062 23.566406 12.6875 23.355469 C 12.535156 23.289062 12.378906 23.242188 12.210938 23.21875 C 12.203125 23.207031 12.195312 23.195312 12.1875 23.1875 L 11.492188 22.484375 L 12.792969 18.558594 C 13.539062 20.472656 13.960938 22.457031 14.058594 24.511719 C 13.941406 24.523438 13.824219 24.535156 13.710938 24.546875 Z M 16.097656 22.234375 C 15.527344 20.507812 14.53125 19.089844 13.964844 18.367188 C 15.382812 18.652344 16.796875 18.636719 18.210938 18.324219 C 17.300781 19.515625 16.59375 20.816406 16.097656 22.234375 Z M 14.542969 24.449219 C 14.40625 21.449219 13.554688 19.105469 13.167969 18.179688 C 13.191406 18.203125 15.210938 20.433594 15.847656 23.15625 L 15.847656 24.253906 C 15.417969 24.324219 14.980469 24.390625 14.542969 24.449219 Z M 6.957031 20.363281 C 7.445312 18.199219 9.863281 17.050781 10.429688 16.808594 C 11.058594 17.285156 11.742188 17.664062 12.480469 17.941406 L 10.984375 22.472656 C 10.953125 22.566406 10.972656 22.648438 11.042969 22.71875 L 11.527344 23.210938 C 11.261719 23.246094 11.007812 23.304688 10.757812 23.398438 C 10.703125 23.09375 10.675781 22.785156 10.683594 22.476562 C 10.683594 22.320312 10.605469 22.238281 10.445312 22.230469 C 10.289062 22.226562 10.203125 22.300781 10.191406 22.460938 C 10.191406 22.546875 10.132812 24.582031 11.257812 24.992188 C 12.507812 25.449219 17.140625 24.539062 18.351562 24.289062 L 18.457031 26.617188 C 17.539062 26.734375 16.34375 27.109375 15.089844 27.5 C 12.648438 28.261719 9.886719 29.121094 8.164062 28.503906 C 6.050781 27.746094 6.449219 22.597656 6.957031 20.363281 Z M 17.871094 29.480469 L 18.371094 33.257812 L 16.046875 33.257812 L 16.046875 30.015625 C 16.046875 29.949219 16.023438 29.890625 15.976562 29.84375 C 15.925781 29.796875 15.871094 29.773438 15.800781 29.773438 C 15.734375 29.773438 15.675781 29.796875 15.628906 29.84375 C 15.582031 29.890625 15.554688 29.949219 15.554688 30.015625 L 15.554688 33.253906 L 13.601562 33.253906 L 14.230469 28.726562 C 15.421875 29.09375 16.632812 29.34375 17.871094 29.480469 Z M 8.289062 29.054688 C 8.703125 29.15625 9.125 29.207031 9.554688 29.203125 C 10.757812 29.203125 12.144531 28.882812 13.519531 28.488281 C 13.527344 28.492188 13.539062 28.496094 13.546875 28.5 C 13.617188 28.527344 13.6875 28.550781 13.757812 28.574219 L 12.859375 35.015625 C 12.675781 36.1875 11.347656 36.550781 10.109375 36.394531 L 9.039062 36.191406 L 9.03125 36.191406 L 7.503906 35.898438 Z M 12.710938 39.90625 C 10.492188 40.039062 8.085938 40.082031 7.757812 39.925781 C 7.695312 39.867188 7.601562 39.527344 7.730469 39.046875 C 7.808594 38.738281 8.09375 38.015625 8.96875 37.898438 C 10.34375 37.710938 10.90625 38.734375 10.933594 38.785156 C 10.964844 38.84375 11.011719 38.882812 11.074219 38.90625 C 11.140625 38.925781 11.203125 38.917969 11.261719 38.886719 C 11.324219 38.855469 11.363281 38.808594 11.382812 38.742188 C 11.402344 38.679688 11.398438 38.617188 11.367188 38.558594 C 11.289062 38.421875 11.199219 38.296875 11.09375 38.183594 C 11.382812 38.203125 11.6875 38.214844 12 38.214844 C 12.34375 38.214844 12.691406 38.199219 13.039062 38.167969 Z M 23.882812 39.046875 C 24.011719 39.527344 23.914062 39.867188 23.851562 39.925781 C 23.523438 40.082031 21.121094 40.039062 18.898438 39.90625 L 18.527344 37.957031 C 18.832031 37.976562 19.1875 37.988281 19.601562 37.988281 C 19.941406 37.988281 20.324219 37.980469 20.75 37.957031 C 20.542969 38.128906 20.375 38.328125 20.242188 38.558594 C 20.210938 38.617188 20.203125 38.679688 20.226562 38.742188 C 20.246094 38.808594 20.285156 38.855469 20.34375 38.886719 C 20.40625 38.917969 20.46875 38.925781 20.53125 38.90625 C 20.597656 38.882812 20.644531 38.84375 20.675781 38.785156 C 20.699219 38.738281 21.261719 37.714844 22.640625 37.898438 C 23.515625 38.015625 23.800781 38.738281 23.882812 39.046875 Z M 22.820312 37.292969 C 19.210938 37.699219 17.652344 37.382812 17.296875 37.289062 L 15.746094 34.476562 L 15.851562 34.128906 C 15.871094 34.0625 15.867188 34 15.835938 33.941406 C 15.800781 33.878906 15.753906 33.839844 15.6875 33.820312 C 15.621094 33.800781 15.558594 33.808594 15.5 33.839844 C 15.441406 33.871094 15.398438 33.921875 15.378906 33.984375 L 14.34375 37.410156 C 13.078125 37.824219 11.484375 37.757812 10.347656 37.625 C 9.910156 37.417969 9.453125 37.34375 8.976562 37.40625 L 8.878906 37.386719 L 9.140625 36.714844 L 10.019531 36.878906 L 10.035156 36.878906 C 10.238281 36.90625 10.441406 36.917969 10.644531 36.917969 C 11.921875 36.917969 13.136719 36.382812 13.339844 35.089844 L 13.527344 33.75 L 18.429688 33.75 L 18.601562 35.03125 C 18.789062 36.234375 20.050781 36.726562 21.414062 36.726562 C 21.667969 36.726562 21.921875 36.710938 22.175781 36.675781 L 22.429688 36.644531 Z M 24.460938 35.886719 L 22.117188 36.1875 C 21.085938 36.320312 19.285156 36.210938 19.089844 34.957031 L 18.371094 29.53125 C 18.921875 29.578125 19.46875 29.601562 20.007812 29.601562 L 20.070312 29.601562 C 21.515625 29.597656 22.746094 29.417969 23.679688 29.085938 Z M 24.65625 27.996094 C 24.414062 28.203125 24.144531 28.367188 23.851562 28.492188 C 23.808594 28.496094 23.769531 28.515625 23.734375 28.542969 C 22.417969 29.085938 20.355469 29.25 18.167969 29.027344 C 18.132812 29.011719 18.09375 29.007812 18.054688 29.015625 L 18.050781 29.015625 C 16.785156 28.878906 15.542969 28.625 14.328125 28.246094 C 14.632812 28.152344 14.9375 28.058594 15.234375 27.964844 C 16.566406 27.554688 17.828125 27.160156 18.71875 27.082031 L 18.789062 27.082031 C 19.675781 27.066406 20.453125 26.765625 21.113281 26.171875 C 22.015625 25.359375 22.507812 24.085938 22.570312 22.378906 C 22.578125 22.3125 22.554688 22.25 22.511719 22.199219 C 22.464844 22.148438 22.40625 22.121094 22.335938 22.117188 C 22.269531 22.117188 22.207031 22.136719 22.160156 22.1875 C 22.109375 22.234375 22.082031 22.292969 22.082031 22.359375 C 22.035156 23.613281 21.742188 24.605469 21.21875 25.324219 C 20.816406 24.972656 20.359375 24.710938 19.855469 24.539062 L 21.285156 22.769531 C 21.378906 22.652344 21.371094 22.539062 21.261719 22.4375 C 19.539062 20.8125 19.753906 17.917969 19.757812 17.890625 C 19.757812 17.871094 19.757812 17.855469 19.757812 17.839844 C 20.421875 17.566406 21.039062 17.207031 21.609375 16.765625 C 21.667969 16.785156 24.453125 17.695312 25.234375 19.871094 C 26.0625 22.160156 26.253906 26.574219 24.65625 27.996094 Z M 24.65625 27.996094 " fill-opacity="1" fill-rule="nonzero"/></g><path fill="#231f20" d="M 19.703125 31.015625 C 19.640625 31.039062 19.59375 31.082031 19.566406 31.144531 C 19.539062 31.203125 19.535156 31.265625 19.558594 31.332031 C 19.582031 31.390625 20.132812 32.792969 22.964844 33.128906 L 22.996094 33.128906 C 23.148438 33.128906 23.230469 33.050781 23.238281 32.898438 C 23.246094 32.746094 23.175781 32.660156 23.023438 32.640625 C 20.53125 32.347656 20.027344 31.179688 20.019531 31.15625 C 19.960938 31.007812 19.855469 30.960938 19.703125 31.015625 Z M 19.703125 31.015625 " fill-opacity="1" fill-rule="nonzero"/><path fill="#231f20" d="M 9.125 33.132812 L 9.152344 33.132812 C 11.988281 32.792969 12.539062 31.390625 12.558594 31.332031 C 12.617188 31.179688 12.566406 31.078125 12.417969 31.019531 C 12.265625 30.960938 12.160156 31.007812 12.101562 31.160156 C 12.097656 31.171875 11.601562 32.34375 9.09375 32.644531 C 8.941406 32.664062 8.871094 32.75 8.878906 32.902344 C 8.890625 33.054688 8.96875 33.132812 9.125 33.132812 Z M 9.125 33.132812 " fill-opacity="1" fill-rule="nonzero"/><path fill="#231f20" d="M 14.503906 11.867188 C 14.503906 12.074219 14.484375 12.273438 14.445312 12.464844 C 14.402344 12.65625 14.347656 12.824219 14.273438 12.96875 C 14.199219 13.117188 14.113281 13.230469 14.019531 13.308594 C 13.921875 13.386719 13.820312 13.425781 13.71875 13.425781 C 13.613281 13.425781 13.511719 13.386719 13.414062 13.308594 C 13.320312 13.230469 13.234375 13.117188 13.160156 12.96875 C 13.085938 12.824219 13.03125 12.65625 12.988281 12.464844 C 12.949219 12.273438 12.929688 12.074219 12.929688 11.867188 C 12.929688 11.664062 12.949219 11.464844 12.988281 11.273438 C 13.03125 11.082031 13.085938 10.914062 13.160156 10.765625 C 13.234375 10.621094 13.320312 10.507812 13.414062 10.429688 C 13.511719 10.351562 13.613281 10.3125 13.71875 10.3125 C 13.820312 10.3125 13.921875 10.351562 14.019531 10.429688 C 14.113281 10.507812 14.199219 10.621094 14.273438 10.765625 C 14.347656 10.914062 14.402344 11.082031 14.445312 11.273438 C 14.484375 11.464844 14.503906 11.664062 14.503906 11.867188 Z M 14.503906 11.867188 " fill-opacity="1" fill-rule="nonzero"/><path fill="#231f20" d="M 19.238281 11.867188 C 19.238281 12.074219 19.21875 12.273438 19.179688 12.464844 C 19.140625 12.65625 19.082031 12.824219 19.007812 12.96875 C 18.933594 13.117188 18.851562 13.230469 18.753906 13.308594 C 18.65625 13.386719 18.558594 13.425781 18.453125 13.425781 C 18.347656 13.425781 18.246094 13.386719 18.152344 13.308594 C 18.054688 13.230469 17.96875 13.117188 17.894531 12.96875 C 17.824219 12.824219 17.765625 12.65625 17.726562 12.464844 C 17.6875 12.273438 17.664062 12.074219 17.664062 11.867188 C 17.664062 11.664062 17.6875 11.464844 17.726562 11.273438 C 17.765625 11.082031 17.824219 10.914062 17.894531 10.765625 C 17.96875 10.621094 18.054688 10.507812 18.152344 10.429688 C 18.246094 10.351562 18.347656 10.3125 18.453125 10.3125 C 18.558594 10.3125 18.65625 10.351562 18.753906 10.429688 C 18.851562 10.507812 18.933594 10.621094 19.007812 10.765625 C 19.082031 10.914062 19.140625 11.082031 19.179688 11.273438 C 19.21875 11.464844 19.238281 11.664062 19.238281 11.867188 Z M 19.238281 11.867188 " fill-opacity="1" fill-rule="nonzero"/><path fill="#231f20" d="M 16.074219 15.785156 C 16.933594 15.785156 17.632812 15.128906 17.632812 14.324219 C 17.625 14.167969 17.542969 14.089844 17.386719 14.089844 C 17.230469 14.089844 17.148438 14.167969 17.140625 14.324219 C 17.140625 14.859375 16.660156 15.296875 16.078125 15.296875 C 15.492188 15.296875 15.011719 14.859375 15.011719 14.324219 C 15.011719 14.257812 14.988281 14.199219 14.9375 14.152344 C 14.890625 14.101562 14.832031 14.078125 14.765625 14.078125 C 14.699219 14.078125 14.640625 14.101562 14.59375 14.152344 C 14.542969 14.199219 14.519531 14.257812 14.519531 14.324219 C 14.515625 15.132812 15.214844 15.785156 16.074219 15.785156 Z M 16.074219 15.785156 " fill-opacity="1" fill-rule="nonzero"/><path fill="#231f20" d="M 24.144531 12.539062 C 24.164062 12.546875 24.1875 12.550781 24.210938 12.550781 C 24.355469 12.550781 24.433594 12.480469 24.453125 12.339844 C 24.472656 12.195312 24.414062 12.105469 24.277344 12.070312 C 24.128906 12.035156 24.019531 11.953125 23.949219 11.820312 C 23.910156 11.746094 23.886719 11.664062 23.882812 11.578125 C 24.027344 11.566406 24.171875 11.578125 24.3125 11.613281 C 24.375 11.628906 24.4375 11.621094 24.496094 11.585938 C 24.554688 11.550781 24.59375 11.5 24.609375 11.433594 C 24.625 11.367188 24.613281 11.304688 24.582031 11.246094 C 24.546875 11.1875 24.496094 11.152344 24.429688 11.136719 C 24.277344 11.097656 24.121094 11.082031 23.964844 11.082031 C 23.96875 11.0625 23.972656 11.046875 23.980469 11.027344 C 24.027344 10.890625 24.09375 10.808594 24.171875 10.78125 C 24.300781 10.738281 24.484375 10.828125 24.542969 10.863281 C 24.675781 10.949219 24.789062 10.925781 24.878906 10.792969 C 24.964844 10.65625 24.945312 10.546875 24.8125 10.453125 C 24.769531 10.425781 24.398438 10.1875 24.015625 10.316406 C 23.859375 10.367188 23.640625 10.507812 23.519531 10.867188 C 23.355469 11.332031 23.355469 11.742188 23.519531 12.046875 C 23.652344 12.304688 23.863281 12.46875 24.144531 12.539062 Z M 24.144531 12.539062 " fill-opacity="1" fill-rule="nonzero"/><path fill="#231f20" d="M 8.582031 11.390625 C 8.5625 11.210938 8.523438 11.035156 8.464844 10.867188 C 8.339844 10.507812 8.125 10.367188 7.964844 10.316406 C 7.585938 10.1875 7.210938 10.425781 7.167969 10.453125 C 7.113281 10.492188 7.078125 10.542969 7.066406 10.609375 C 7.050781 10.675781 7.0625 10.738281 7.101562 10.792969 C 7.136719 10.851562 7.191406 10.886719 7.257812 10.898438 C 7.324219 10.914062 7.382812 10.898438 7.441406 10.863281 C 7.484375 10.832031 7.675781 10.734375 7.808594 10.78125 C 7.886719 10.808594 7.953125 10.890625 8 11.027344 C 8.007812 11.046875 8.011719 11.0625 8.015625 11.082031 C 7.859375 11.082031 7.703125 11.097656 7.550781 11.136719 C 7.484375 11.152344 7.4375 11.1875 7.402344 11.246094 C 7.367188 11.304688 7.355469 11.367188 7.371094 11.433594 C 7.390625 11.5 7.425781 11.550781 7.484375 11.585938 C 7.542969 11.621094 7.605469 11.628906 7.667969 11.613281 C 7.808594 11.578125 7.953125 11.566406 8.097656 11.578125 C 8.09375 11.664062 8.070312 11.746094 8.03125 11.824219 C 7.960938 11.957031 7.851562 12.039062 7.703125 12.070312 C 7.570312 12.113281 7.515625 12.203125 7.535156 12.339844 C 7.554688 12.476562 7.632812 12.546875 7.773438 12.550781 C 7.796875 12.550781 7.816406 12.546875 7.839844 12.539062 C 8.121094 12.46875 8.332031 12.304688 8.46875 12.050781 C 8.570312 11.839844 8.609375 11.621094 8.585938 11.394531 Z M 8.582031 11.390625 " fill-opacity="1" fill-rule="nonzero"/><path fill="#231f20" d="M 12.621094 9.609375 C 12.691406 9.609375 12.75 9.585938 12.796875 9.535156 C 12.800781 9.53125 13.152344 9.179688 13.820312 9.234375 C 13.886719 9.238281 13.945312 9.21875 14 9.175781 C 14.050781 9.132812 14.078125 9.078125 14.082031 9.007812 C 14.089844 8.941406 14.070312 8.882812 14.027344 8.832031 C 13.980469 8.777344 13.925781 8.75 13.859375 8.746094 C 12.949219 8.671875 12.460938 9.175781 12.441406 9.195312 C 12.394531 9.246094 12.371094 9.304688 12.375 9.371094 C 12.375 9.441406 12.402344 9.496094 12.449219 9.542969 C 12.5 9.589844 12.554688 9.609375 12.621094 9.609375 Z M 12.621094 9.609375 " fill-opacity="1" fill-rule="nonzero"/><path fill="#ffffff" d="M 18.960938 11.140625 C 18.960938 11.21875 18.933594 11.289062 18.875 11.347656 C 18.820312 11.402344 18.75 11.429688 18.667969 11.429688 C 18.589844 11.429688 18.519531 11.402344 18.460938 11.347656 C 18.40625 11.289062 18.375 11.21875 18.375 11.140625 C 18.375 11.058594 18.40625 10.988281 18.460938 10.929688 C 18.519531 10.875 18.589844 10.847656 18.667969 10.847656 C 18.75 10.847656 18.820312 10.875 18.875 10.929688 C 18.933594 10.988281 18.960938 11.058594 18.960938 11.140625 Z M 18.960938 11.140625 " fill-opacity="1" fill-rule="nonzero"/><path fill="#ffffff" d="M 14.304688 11.140625 C 14.304688 11.21875 14.273438 11.289062 14.21875 11.347656 C 14.160156 11.402344 14.089844 11.429688 14.011719 11.429688 C 13.929688 11.429688 13.859375 11.402344 13.804688 11.347656 C 13.746094 11.289062 13.71875 11.21875 13.71875 11.140625 C 13.71875 11.058594 13.746094 10.988281 13.804688 10.929688 C 13.859375 10.875 13.929688 10.847656 14.011719 10.847656 C 14.089844 10.847656 14.160156 10.875 14.21875 10.929688 C 14.273438 10.988281 14.304688 11.058594 14.304688 11.140625 Z M 14.304688 11.140625 " fill-opacity="1" fill-rule="nonzero"/><g fill="#2563eb" fill-opacity="1"><g transform="translate(31.682473, 25.378935)"><g><path d="M 0.796875 -3.125 L 0.796875 -9.703125 C 0.796875 -9.890625 0.882812 -10.03125 1.0625 -10.125 C 1.238281 -10.21875 1.453125 -10.265625 1.703125 -10.265625 C 1.960938 -10.265625 2.179688 -10.21875 2.359375 -10.125 C 2.535156 -10.03125 2.625 -9.890625 2.625 -9.703125 L 2.625 -3.125 C 2.625 -2.050781 3.140625 -1.515625 4.171875 -1.515625 C 5.203125 -1.515625 5.71875 -2.050781 5.71875 -3.125 L 5.71875 -9.703125 C 5.71875 -9.890625 5.804688 -10.03125 5.984375 -10.125 C 6.160156 -10.21875 6.375 -10.265625 6.625 -10.265625 C 6.882812 -10.265625 7.101562 -10.21875 7.28125 -10.125 C 7.457031 -10.03125 7.546875 -9.890625 7.546875 -9.703125 L 7.546875 -3.125 C 7.546875 -2.019531 7.238281 -1.207031 6.625 -0.6875 C 6.007812 -0.175781 5.191406 0.078125 4.171875 0.078125 C 3.148438 0.078125 2.332031 -0.175781 1.71875 -0.6875 C 1.101562 -1.195312 0.796875 -2.007812 0.796875 -3.125 Z M 0.796875 -3.125 "/></g></g></g><g fill="#2563eb" fill-opacity="1"><g transform="translate(40.027932, 25.378935)"><g><path d="M 0.203125 -0.5 C 0.203125 -0.707031 0.265625 -0.921875 0.390625 -1.140625 L 4.5625 -8.671875 L 1.015625 -8.671875 C 0.835938 -8.671875 0.695312 -8.742188 0.59375 -8.890625 C 0.5 -9.046875 0.453125 -9.238281 0.453125 -9.46875 C 0.453125 -9.6875 0.5 -9.875 0.59375 -10.03125 C 0.6875 -10.1875 0.828125 -10.265625 1.015625 -10.265625 L 6.34375 -10.265625 C 6.707031 -10.265625 6.890625 -10.101562 6.890625 -9.78125 C 6.890625 -9.570312 6.820312 -9.347656 6.6875 -9.109375 L 2.53125 -1.59375 L 6.578125 -1.59375 C 6.742188 -1.59375 6.878906 -1.507812 6.984375 -1.34375 C 7.097656 -1.1875 7.15625 -1.003906 7.15625 -0.796875 C 7.15625 -0.585938 7.097656 -0.398438 6.984375 -0.234375 C 6.878906 -0.078125 6.742188 0 6.578125 0 L 0.75 0 C 0.382812 0 0.203125 -0.164062 0.203125 -0.5 Z M 0.203125 -0.5 "/></g></g></g><g fill="#2563eb" fill-opacity="1"><g transform="translate(47.361819, 25.378935)"><g><path d="M 0.84375 -0.578125 L 0.84375 -9.359375 C 0.84375 -9.660156 0.925781 -9.882812 1.09375 -10.03125 C 1.269531 -10.1875 1.488281 -10.265625 1.75 -10.265625 C 2.101562 -10.265625 2.375 -10.203125 2.5625 -10.078125 C 2.75 -9.960938 2.953125 -9.703125 3.171875 -9.296875 L 4.90625 -6.15625 L 6.625 -9.296875 C 6.851562 -9.703125 7.0625 -9.960938 7.25 -10.078125 C 7.445312 -10.203125 7.71875 -10.265625 8.0625 -10.265625 C 8.320312 -10.265625 8.535156 -10.1875 8.703125 -10.03125 C 8.878906 -9.882812 8.96875 -9.660156 8.96875 -9.359375 L 8.96875 -0.578125 C 8.96875 -0.398438 8.875 -0.257812 8.6875 -0.15625 C 8.507812 -0.0507812 8.300781 0 8.0625 0 C 7.8125 0 7.597656 -0.0507812 7.421875 -0.15625 C 7.242188 -0.257812 7.15625 -0.398438 7.15625 -0.578125 L 7.15625 -6.609375 L 5.5 -3.6875 C 5.375 -3.445312 5.171875 -3.328125 4.890625 -3.328125 C 4.617188 -3.328125 4.414062 -3.445312 4.28125 -3.6875 L 2.671875 -6.734375 L 2.671875 -0.578125 C 2.671875 -0.398438 2.578125 -0.257812 2.390625 -0.15625 C 2.210938 -0.0507812 2 0 1.75 0 C 1.5 0 1.285156 -0.0507812 1.109375 -0.15625 C 0.929688 -0.257812 0.84375 -0.398438 0.84375 -0.578125 Z M 0.84375 -0.578125 "/></g></g></g><g fill="#2563eb" fill-opacity="1"><g transform="translate(57.182485, 25.378935)"><g><path d="M 0.125 -0.765625 C 0.125 -0.773438 0.132812 -0.820312 0.15625 -0.90625 L 2.859375 -9.734375 C 2.921875 -9.929688 3.0625 -10.082031 3.28125 -10.1875 C 3.5 -10.300781 3.75 -10.359375 4.03125 -10.359375 C 4.3125 -10.359375 4.5625 -10.300781 4.78125 -10.1875 C 5.007812 -10.082031 5.15625 -9.929688 5.21875 -9.734375 L 7.921875 -0.90625 C 7.941406 -0.820312 7.953125 -0.773438 7.953125 -0.765625 C 7.953125 -0.554688 7.820312 -0.375 7.5625 -0.21875 C 7.3125 -0.0703125 7.054688 0 6.796875 0 C 6.453125 0 6.25 -0.117188 6.1875 -0.359375 L 5.640625 -2.234375 L 2.4375 -2.234375 L 1.890625 -0.359375 C 1.828125 -0.117188 1.625 0 1.28125 0 C 1.007812 0 0.75 -0.0703125 0.5 -0.21875 C 0.25 -0.363281 0.125 -0.546875 0.125 -0.765625 Z M 2.8125 -3.671875 L 5.25 -3.671875 L 4.03125 -7.984375 Z M 2.8125 -3.671875 "/></g></g></g><g fill="#2563eb" fill-opacity="1"><g transform="translate(65.261002, 25.378935)"><g><path d="M 0.84375 -0.578125 L 0.84375 -9.6875 C 0.84375 -9.875 0.929688 -10.015625 1.109375 -10.109375 C 1.285156 -10.210938 1.5 -10.265625 1.75 -10.265625 C 2.09375 -10.265625 2.351562 -10.203125 2.53125 -10.078125 C 2.707031 -9.960938 2.90625 -9.703125 3.125 -9.296875 L 5.828125 -4.0625 L 5.828125 -9.703125 C 5.828125 -9.890625 5.914062 -10.03125 6.09375 -10.125 C 6.269531 -10.21875 6.484375 -10.265625 6.734375 -10.265625 C 6.992188 -10.265625 7.210938 -10.21875 7.390625 -10.125 C 7.566406 -10.03125 7.65625 -9.890625 7.65625 -9.703125 L 7.65625 -0.578125 C 7.65625 -0.398438 7.5625 -0.257812 7.375 -0.15625 C 7.195312 -0.0507812 6.988281 0 6.75 0 C 6.25 0 5.894531 -0.191406 5.6875 -0.578125 L 2.671875 -6.21875 L 2.671875 -0.578125 C 2.671875 -0.398438 2.578125 -0.257812 2.390625 -0.15625 C 2.210938 -0.0507812 2 0 1.75 0 C 1.5 0 1.285156 -0.0507812 1.109375 -0.15625 C 0.929688 -0.257812 0.84375 -0.398438 0.84375 -0.578125 Z M 0.84375 -0.578125 "/></g></g></g><g fill="#2563eb" fill-opacity="1"><g transform="translate(73.761006, 25.378935)"><g><path d="M 0.84375 -0.578125 L 0.84375 -9.703125 C 0.84375 -9.859375 0.898438 -9.988281 1.015625 -10.09375 C 1.128906 -10.207031 1.269531 -10.265625 1.4375 -10.265625 L 4.21875 -10.265625 C 6.4375 -10.265625 7.546875 -9.285156 7.546875 -7.328125 C 7.546875 -6.566406 7.378906 -5.953125 7.046875 -5.484375 C 6.710938 -5.015625 6.265625 -4.691406 5.703125 -4.515625 L 7.546875 -1.109375 C 7.585938 -1.054688 7.609375 -0.984375 7.609375 -0.890625 C 7.609375 -0.648438 7.488281 -0.429688 7.25 -0.234375 C 7.007812 -0.0351562 6.75 0.0625 6.46875 0.0625 C 6.195312 0.0625 5.988281 -0.078125 5.84375 -0.359375 L 3.84375 -4.234375 L 2.671875 -4.234375 L 2.671875 -0.578125 C 2.671875 -0.398438 2.582031 -0.257812 2.40625 -0.15625 C 2.226562 -0.0507812 2.007812 0 1.75 0 C 1.507812 0 1.296875 -0.0507812 1.109375 -0.15625 C 0.929688 -0.257812 0.84375 -0.398438 0.84375 -0.578125 Z M 2.671875 -5.671875 L 4.21875 -5.671875 C 5.21875 -5.671875 5.71875 -6.164062 5.71875 -7.15625 C 5.71875 -8.164062 5.21875 -8.671875 4.21875 -8.671875 L 2.671875 -8.671875 Z M 2.671875 -5.671875 "/></g></g></g><g fill="#2563eb" fill-opacity="1"><g transform="translate(81.769278, 25.378935)"><g><path d="M 0.125 -0.765625 C 0.125 -0.773438 0.132812 -0.820312 0.15625 -0.90625 L 2.859375 -9.734375 C 2.921875 -9.929688 3.0625 -10.082031 3.28125 -10.1875 C 3.5 -10.300781 3.75 -10.359375 4.03125 -10.359375 C 4.3125 -10.359375 4.5625 -10.300781 4.78125 -10.1875 C 5.007812 -10.082031 5.15625 -9.929688 5.21875 -9.734375 L 7.921875 -0.90625 C 7.941406 -0.820312 7.953125 -0.773438 7.953125 -0.765625 C 7.953125 -0.554688 7.820312 -0.375 7.5625 -0.21875 C 7.3125 -0.0703125 7.054688 0 6.796875 0 C 6.453125 0 6.25 -0.117188 6.1875 -0.359375 L 5.640625 -2.234375 L 2.4375 -2.234375 L 1.890625 -0.359375 C 1.828125 -0.117188 1.625 0 1.28125 0 C 1.007812 0 0.75 -0.0703125 0.5 -0.21875 C 0.25 -0.363281 0.125 -0.546875 0.125 -0.765625 Z M 2.8125 -3.671875 L 5.25 -3.671875 L 4.03125 -7.984375 Z M 2.8125 -3.671875 "/></g></g></g><g fill="#2563eb" fill-opacity="1"><g transform="translate(89.847794, 25.378935)"><g><path d="M 0.84375 -0.578125 L 0.84375 -9.6875 C 0.84375 -9.875 0.929688 -10.015625 1.109375 -10.109375 C 1.285156 -10.210938 1.5 -10.265625 1.75 -10.265625 C 2.09375 -10.265625 2.351562 -10.203125 2.53125 -10.078125 C 2.707031 -9.960938 2.90625 -9.703125 3.125 -9.296875 L 5.828125 -4.0625 L 5.828125 -9.703125 C 5.828125 -9.890625 5.914062 -10.03125 6.09375 -10.125 C 6.269531 -10.21875 6.484375 -10.265625 6.734375 -10.265625 C 6.992188 -10.265625 7.210938 -10.21875 7.390625 -10.125 C 7.566406 -10.03125 7.65625 -9.890625 7.65625 -9.703125 L 7.65625 -0.578125 C 7.65625 -0.398438 7.5625 -0.257812 7.375 -0.15625 C 7.195312 -0.0507812 6.988281 0 6.75 0 C 6.25 0 5.894531 -0.191406 5.6875 -0.578125 L 2.671875 -6.21875 L 2.671875 -0.578125 C 2.671875 -0.398438 2.578125 -0.257812 2.390625 -0.15625 C 2.210938 -0.0507812 2 0 1.75 0 C 1.5 0 1.285156 -0.0507812 1.109375 -0.15625 C 0.929688 -0.257812 0.84375 -0.398438 0.84375 -0.578125 Z M 0.84375 -0.578125 "/></g></g></g><g fill="#2563eb" fill-opacity="1"><g transform="translate(98.347798, 25.378935)"><g><path d="M 0.84375 -0.5625 L 0.84375 -9.703125 C 0.84375 -9.859375 0.914062 -9.988281 1.0625 -10.09375 C 1.21875 -10.207031 1.410156 -10.265625 1.640625 -10.265625 L 4.125 -10.265625 C 5.125 -10.265625 5.925781 -10.003906 6.53125 -9.484375 C 7.132812 -8.972656 7.4375 -8.160156 7.4375 -7.046875 L 7.4375 -3.21875 C 7.4375 -2.101562 7.132812 -1.285156 6.53125 -0.765625 C 5.925781 -0.253906 5.125 0 4.125 0 L 1.640625 0 C 1.410156 0 1.21875 -0.0546875 1.0625 -0.171875 C 0.914062 -0.285156 0.84375 -0.414062 0.84375 -0.5625 Z M 2.671875 -1.59375 L 4.125 -1.59375 C 5.113281 -1.59375 5.609375 -2.132812 5.609375 -3.21875 L 5.609375 -7.046875 C 5.609375 -8.128906 5.113281 -8.671875 4.125 -8.671875 L 2.671875 -8.671875 Z M 2.671875 -1.59375 "/></g></g></g><g fill="#2563eb" fill-opacity="1"><g transform="translate(106.496564, 25.378935)"><g><path d="M 0.84375 -0.578125 L 0.84375 -9.6875 C 0.84375 -9.863281 0.921875 -10.003906 1.078125 -10.109375 C 1.242188 -10.210938 1.429688 -10.265625 1.640625 -10.265625 L 6.640625 -10.265625 C 6.828125 -10.265625 6.96875 -10.1875 7.0625 -10.03125 C 7.164062 -9.875 7.21875 -9.691406 7.21875 -9.484375 C 7.21875 -9.253906 7.164062 -9.0625 7.0625 -8.90625 C 6.957031 -8.75 6.816406 -8.671875 6.640625 -8.671875 L 2.671875 -8.671875 L 2.671875 -5.859375 L 4.796875 -5.859375 C 4.984375 -5.859375 5.125 -5.785156 5.21875 -5.640625 C 5.320312 -5.492188 5.375 -5.320312 5.375 -5.125 C 5.375 -4.945312 5.320312 -4.785156 5.21875 -4.640625 C 5.125 -4.492188 4.984375 -4.421875 4.796875 -4.421875 L 2.671875 -4.421875 L 2.671875 -1.59375 L 6.640625 -1.59375 C 6.816406 -1.59375 6.957031 -1.515625 7.0625 -1.359375 C 7.164062 -1.203125 7.21875 -1.007812 7.21875 -0.78125 C 7.21875 -0.582031 7.164062 -0.398438 7.0625 -0.234375 C 6.96875 -0.078125 6.828125 0 6.640625 0 L 1.640625 0 C 1.429688 0 1.242188 -0.0507812 1.078125 -0.15625 C 0.921875 -0.257812 0.84375 -0.398438 0.84375 -0.578125 Z M 0.84375 -0.578125 "/></g></g></g><g fill="#2563eb" fill-opacity="1"><g transform="translate(113.942845, 25.378935)"><g><path d="M 0.125 -9.515625 C 0.125 -9.722656 0.25 -9.898438 0.5 -10.046875 C 0.75 -10.191406 1.007812 -10.265625 1.28125 -10.265625 C 1.625 -10.265625 1.828125 -10.144531 1.890625 -9.90625 L 4.046875 -2.296875 L 6.1875 -9.90625 C 6.25 -10.144531 6.453125 -10.265625 6.796875 -10.265625 C 7.054688 -10.265625 7.3125 -10.1875 7.5625 -10.03125 C 7.820312 -9.882812 7.953125 -9.710938 7.953125 -9.515625 C 7.953125 -9.492188 7.941406 -9.445312 7.921875 -9.375 L 5.21875 -0.53125 C 5.164062 -0.332031 5.023438 -0.179688 4.796875 -0.078125 C 4.578125 0.0234375 4.328125 0.078125 4.046875 0.078125 C 3.398438 0.078125 3.003906 -0.125 2.859375 -0.53125 L 0.15625 -9.375 C 0.132812 -9.445312 0.125 -9.492188 0.125 -9.515625 Z M 0.125 -9.515625 "/></g></g></g><g fill="#2563eb" fill-opacity="1"><g transform="translate(122.021357, 25.378935)"><g><path d="M 0.796875 -3.125 L 0.796875 -9.703125 C 0.796875 -9.890625 0.882812 -10.03125 1.0625 -10.125 C 1.238281 -10.21875 1.453125 -10.265625 1.703125 -10.265625 C 1.960938 -10.265625 2.179688 -10.21875 2.359375 -10.125 C 2.535156 -10.03125 2.625 -9.890625 2.625 -9.703125 L 2.625 -3.125 C 2.625 -2.050781 3.140625 -1.515625 4.171875 -1.515625 C 5.203125 -1.515625 5.71875 -2.050781 5.71875 -3.125 L 5.71875 -9.703125 C 5.71875 -9.890625 5.804688 -10.03125 5.984375 -10.125 C 6.160156 -10.21875 6.375 -10.265625 6.625 -10.265625 C 6.882812 -10.265625 7.101562 -10.21875 7.28125 -10.125 C 7.457031 -10.03125 7.546875 -9.890625 7.546875 -9.703125 L 7.546875 -3.125 C 7.546875 -2.019531 7.238281 -1.207031 6.625 -0.6875 C 6.007812 -0.175781 5.191406 0.078125 4.171875 0.078125 C 3.148438 0.078125 2.332031 -0.175781 1.71875 -0.6875 C 1.101562 -1.195312 0.796875 -2.007812 0.796875 -3.125 Z M 0.796875 -3.125 "/></g></g></g><g fill="#2563eb" fill-opacity="1"><g transform="translate(130.366816, 25.378935)"><g><path d="M 0.84375 -0.578125 L 0.84375 -9.359375 C 0.84375 -9.660156 0.925781 -9.882812 1.09375 -10.03125 C 1.269531 -10.1875 1.488281 -10.265625 1.75 -10.265625 C 2.101562 -10.265625 2.375 -10.203125 2.5625 -10.078125 C 2.75 -9.960938 2.953125 -9.703125 3.171875 -9.296875 L 4.90625 -6.15625 L 6.625 -9.296875 C 6.851562 -9.703125 7.0625 -9.960938 7.25 -10.078125 C 7.445312 -10.203125 7.71875 -10.265625 8.0625 -10.265625 C 8.320312 -10.265625 8.535156 -10.1875 8.703125 -10.03125 C 8.878906 -9.882812 8.96875 -9.660156 8.96875 -9.359375 L 8.96875 -0.578125 C 8.96875 -0.398438 8.875 -0.257812 8.6875 -0.15625 C 8.507812 -0.0507812 8.300781 0 8.0625 0 C 7.8125 0 7.597656 -0.0507812 7.421875 -0.15625 C 7.242188 -0.257812 7.15625 -0.398438 7.15625 -0.578125 L 7.15625 -6.609375 L 5.5 -3.6875 C 5.375 -3.445312 5.171875 -3.328125 4.890625 -3.328125 C 4.617188 -3.328125 4.414062 -3.445312 4.28125 -3.6875 L 2.671875 -6.734375 L 2.671875 -0.578125 C 2.671875 -0.398438 2.578125 -0.257812 2.390625 -0.15625 C 2.210938 -0.0507812 2 0 1.75 0 C 1.5 0 1.285156 -0.0507812 1.109375 -0.15625 C 0.929688 -0.257812 0.84375 -0.398438 0.84375 -0.578125 Z M 0.84375 -0.578125 "/></g></g></g></svg>