<svg xmlns="http://www.w3.org/2000/svg" xmlns:xlink="http://www.w3.org/1999/xlink" width="250" zoomAndPan="magnify" viewBox="0 0 187.5 37.5" height="50" preserveAspectRatio="xMidYMid meet" version="1.0"><defs><g/><clipPath id="0331601819"><path d="M 19 18 L 37.992188 18 L 37.992188 36.816406 L 19 36.816406 Z M 19 18 " clip-rule="nonzero"/></clipPath><clipPath id="2fc47ff0bb"><path d="M 0.988281 0 L 37.992188 0 L 37.992188 36.816406 L 0.988281 36.816406 Z M 0.988281 0 " clip-rule="nonzero"/></clipPath></defs><g clip-path="url(#0331601819)"><path fill="#2d8879" d="M 37.992188 33.042969 L 37.992188 22.726562 L 33.578125 18.3125 C 33.578125 21.238281 31.199219 23.621094 28.269531 23.621094 L 24.796875 23.621094 L 24.796875 27.09375 C 24.796875 30.019531 22.417969 32.402344 19.488281 32.402344 L 23.90625 36.816406 L 34.21875 36.816406 C 36.304688 36.816406 37.992188 35.125 37.992188 33.042969 " fill-opacity="1" fill-rule="nonzero"/></g><g clip-path="url(#2fc47ff0bb)"><path fill="#36ab9c" d="M 12.066406 23.621094 L 10.710938 23.621094 C 7.78125 23.621094 5.402344 21.238281 5.402344 18.3125 C 5.402344 15.386719 7.78125 13.003906 10.710938 13.003906 L 14.183594 13.003906 L 14.183594 9.53125 C 14.183594 6.605469 16.5625 4.226562 19.488281 4.226562 C 22.417969 4.226562 24.796875 6.605469 24.796875 9.53125 L 24.796875 13.003906 L 22.113281 13.003906 L 22.113281 9.53125 C 22.113281 8.085938 20.9375 6.910156 19.488281 6.910156 C 18.042969 6.910156 16.867188 8.085938 16.867188 9.53125 L 16.867188 14.347656 C 16.867188 15.089844 16.265625 15.6875 15.523438 15.6875 L 10.710938 15.6875 C 9.261719 15.6875 8.085938 16.867188 8.085938 18.3125 C 8.085938 19.761719 9.261719 20.9375 10.710938 20.9375 L 12.066406 20.9375 Z M 14.183594 27.09375 L 14.183594 23.601562 L 16.867188 23.601562 L 16.867188 27.09375 C 16.867188 28.539062 18.042969 29.71875 19.488281 29.71875 C 20.9375 29.71875 22.113281 28.539062 22.113281 27.09375 L 22.113281 22.277344 C 22.113281 21.539062 22.714844 20.9375 23.457031 20.9375 L 28.269531 20.9375 C 29.71875 20.9375 30.894531 19.761719 30.894531 18.3125 C 30.894531 16.867188 29.71875 15.6875 28.269531 15.6875 L 26.914062 15.6875 L 26.914062 13.003906 L 28.269531 13.003906 C 31.199219 13.003906 33.578125 15.386719 33.578125 18.3125 L 37.992188 22.726562 L 37.992188 3.585938 C 37.992188 1.5 36.304688 -0.191406 34.21875 -0.191406 L 4.761719 -0.191406 C 2.675781 -0.191406 0.988281 1.5 0.988281 3.585938 L 0.988281 33.042969 C 0.988281 35.125 2.675781 36.816406 4.761719 36.816406 L 23.90625 36.816406 L 19.488281 32.402344 C 16.5625 32.402344 14.183594 30.019531 14.183594 27.09375 " fill-opacity="1" fill-rule="nonzero"/></g><g fill="#2d8879" fill-opacity="1"><g transform="translate(44.161863, 23.241147)"><g><path d="M 8.9375 -8.9375 L 8.9375 -3.75 C 8.9375 -2.570312 8.566406 -1.632812 7.828125 -0.9375 C 7.097656 -0.238281 6.109375 0.109375 4.859375 0.109375 C 3.597656 0.109375 2.59375 -0.238281 1.84375 -0.9375 C 1.101562 -1.632812 0.734375 -2.570312 0.734375 -3.75 L 0.734375 -8.9375 L 3.015625 -8.9375 L 3.015625 -3.75 C 3.015625 -3.15625 3.1875 -2.679688 3.53125 -2.328125 C 3.875 -1.972656 4.320312 -1.796875 4.875 -1.796875 C 5.414062 -1.796875 5.847656 -1.96875 6.171875 -2.3125 C 6.503906 -2.664062 6.671875 -3.144531 6.671875 -3.75 L 6.671875 -8.9375 Z M 8.9375 -8.9375 "/></g></g></g><g fill="#2d8879" fill-opacity="1"><g transform="translate(54.815077, 23.241147)"><g><path d="M 8.171875 -7.484375 L 3.390625 -1.796875 L 8.25 -1.796875 L 8.25 0 L 0.359375 0 L 0.359375 -1.453125 L 5.140625 -7.140625 L 0.515625 -7.140625 L 0.515625 -8.9375 L 8.171875 -8.9375 Z M 8.171875 -7.484375 "/></g></g></g><g fill="#2d8879" fill-opacity="1"><g transform="translate(64.409364, 23.241147)"><g><path d="M 10.703125 0 L 8.703125 0 L 8.6875 -5.8125 L 6.546875 -0.890625 L 5.0625 -0.890625 L 2.921875 -5.8125 L 2.921875 0 L 0.890625 0 L 0.890625 -8.953125 L 3.390625 -8.953125 L 5.8125 -3.625 L 8.234375 -8.953125 L 10.703125 -8.953125 Z M 10.703125 0 "/></g></g></g><g fill="#2d8879" fill-opacity="1"><g transform="translate(77.001817, 23.241147)"><g><path d="M 6.828125 -1.640625 L 2.921875 -1.640625 L 2.265625 0 L -0.0625 0 L 3.796875 -8.9375 L 6.125 -8.9375 L 9.890625 0 L 7.46875 0 Z M 6.171875 -3.375 L 4.890625 -6.671875 L 3.59375 -3.375 Z M 6.171875 -3.375 "/></g></g></g><g fill="#2d8879" fill-opacity="1"><g transform="translate(87.808127, 23.241147)"><g><path d="M 9.140625 0 L 7.140625 0 L 3.03125 -5.5 L 3.03125 0 L 0.890625 0 L 0.890625 -8.9375 L 2.890625 -8.9375 L 7.015625 -3.421875 L 7.015625 -8.9375 L 9.140625 -8.9375 Z M 9.140625 0 "/></g></g></g><g fill="#2d8879" fill-opacity="1"><g transform="translate(98.818569, 23.241147)"><g><path d="M 6.28125 0 L 4.953125 -2.515625 L 3.171875 -2.515625 L 3.171875 0 L 0.890625 0 L 0.890625 -8.9375 L 4.890625 -8.9375 C 6.066406 -8.9375 6.976562 -8.664062 7.625 -8.125 C 8.28125 -7.582031 8.609375 -6.816406 8.609375 -5.828125 C 8.609375 -4.441406 8.066406 -3.484375 6.984375 -2.953125 L 8.859375 0 Z M 3.171875 -4.296875 L 4.890625 -4.296875 C 5.378906 -4.296875 5.757812 -4.421875 6.03125 -4.671875 C 6.3125 -4.921875 6.453125 -5.28125 6.453125 -5.75 C 6.453125 -6.207031 6.3125 -6.554688 6.03125 -6.796875 C 5.757812 -7.035156 5.378906 -7.15625 4.890625 -7.15625 L 3.171875 -7.15625 Z M 3.171875 -4.296875 "/></g></g></g><g fill="#2d8879" fill-opacity="1"><g transform="translate(109.038005, 23.241147)"><g><path d="M 6.828125 -1.640625 L 2.921875 -1.640625 L 2.265625 0 L -0.0625 0 L 3.796875 -8.9375 L 6.125 -8.9375 L 9.890625 0 L 7.46875 0 Z M 6.171875 -3.375 L 4.890625 -6.671875 L 3.59375 -3.375 Z M 6.171875 -3.375 "/></g></g></g><g fill="#2d8879" fill-opacity="1"><g transform="translate(119.844315, 23.241147)"><g><path d="M 9.140625 0 L 7.140625 0 L 3.03125 -5.5 L 3.03125 0 L 0.890625 0 L 0.890625 -8.9375 L 2.890625 -8.9375 L 7.015625 -3.421875 L 7.015625 -8.9375 L 9.140625 -8.9375 Z M 9.140625 0 "/></g></g></g><g fill="#2d8879" fill-opacity="1"><g transform="translate(130.854757, 23.241147)"><g><path d="M 0.890625 -8.9375 L 4.734375 -8.9375 C 6.140625 -8.9375 7.28125 -8.519531 8.15625 -7.6875 C 9.039062 -6.863281 9.484375 -5.789062 9.484375 -4.46875 C 9.484375 -3.144531 9.035156 -2.066406 8.140625 -1.234375 C 7.242188 -0.410156 6.078125 0 4.640625 0 L 0.890625 0 Z M 3.171875 -7.125 L 3.171875 -1.8125 L 4.78125 -1.8125 C 5.476562 -1.8125 6.050781 -2.054688 6.5 -2.546875 C 6.945312 -3.035156 7.171875 -3.671875 7.171875 -4.453125 C 7.171875 -5.234375 6.9375 -5.875 6.46875 -6.375 C 6 -6.875 5.40625 -7.125 4.6875 -7.125 Z M 3.171875 -7.125 "/></g></g></g><g fill="#2d8879" fill-opacity="1"><g transform="translate(141.622787, 23.241147)"><g><path d="M 7.890625 -7.15625 L 3.171875 -7.15625 L 3.171875 -5.375 L 7.421875 -5.375 L 7.421875 -3.59375 L 3.171875 -3.59375 L 3.171875 -1.78125 L 8.03125 -1.78125 L 8.03125 0 L 0.890625 0 L 0.890625 -8.9375 L 7.890625 -8.9375 Z M 7.890625 -7.15625 "/></g></g></g><g fill="#2d8879" fill-opacity="1"><g transform="translate(151.204319, 23.241147)"><g><path d="M 5.8125 0 L 3.453125 0 L -0.015625 -8.9375 L 2.40625 -8.9375 L 4.703125 -2.359375 L 6.984375 -8.9375 L 9.3125 -8.9375 Z M 5.8125 0 "/></g></g></g><g fill="#2d8879" fill-opacity="1"><g transform="translate(161.487545, 23.241147)"><g><path d="M 8.9375 -8.9375 L 8.9375 -3.75 C 8.9375 -2.570312 8.566406 -1.632812 7.828125 -0.9375 C 7.097656 -0.238281 6.109375 0.109375 4.859375 0.109375 C 3.597656 0.109375 2.59375 -0.238281 1.84375 -0.9375 C 1.101562 -1.632812 0.734375 -2.570312 0.734375 -3.75 L 0.734375 -8.9375 L 3.015625 -8.9375 L 3.015625 -3.75 C 3.015625 -3.15625 3.1875 -2.679688 3.53125 -2.328125 C 3.875 -1.972656 4.320312 -1.796875 4.875 -1.796875 C 5.414062 -1.796875 5.847656 -1.96875 6.171875 -2.3125 C 6.503906 -2.664062 6.671875 -3.144531 6.671875 -3.75 L 6.671875 -8.9375 Z M 8.9375 -8.9375 "/></g></g></g><g fill="#2d8879" fill-opacity="1"><g transform="translate(172.140755, 23.241147)"><g><path d="M 10.703125 0 L 8.703125 0 L 8.6875 -5.8125 L 6.546875 -0.890625 L 5.0625 -0.890625 L 2.921875 -5.8125 L 2.921875 0 L 0.890625 0 L 0.890625 -8.953125 L 3.390625 -8.953125 L 5.8125 -3.625 L 8.234375 -8.953125 L 10.703125 -8.953125 Z M 10.703125 0 "/></g></g></g></svg>